<svg viewBox="0 0 2153 400" xmlns="http://www.w3.org/2000/svg"><g><g><g><g><g><line x1="50" y1="378" x2="45" y2="378" style="visibility: inherit;" fill="rgb(0, 0, 0)" stroke="rgb(204, 204, 204)" stroke-width="1px"></line><line x1="50" y1="343.6363636363638" x2="45" y2="343.6363636363638" style="visibility: inherit;" fill="rgb(0, 0, 0)" stroke="rgb(204, 204, 204)" stroke-width="1px"></line><line x1="50" y1="309.2727272727274" x2="45" y2="309.2727272727274" style="visibility: inherit;" fill="rgb(0, 0, 0)" stroke="rgb(204, 204, 204)" stroke-width="1px"></line><line x1="50" y1="274.909090909091" x2="45" y2="274.909090909091" style="visibility: inherit;" fill="rgb(0, 0, 0)" stroke="rgb(204, 204, 204)" stroke-width="1px"></line><line x1="50" y1="240.5454545454546" x2="45" y2="240.5454545454546" style="visibility: inherit;" fill="rgb(0, 0, 0)" stroke="rgb(204, 204, 204)" stroke-width="1px"></line><line x1="50" y1="206.18181818181822" x2="45" y2="206.18181818181822" style="visibility: inherit;" fill="rgb(0, 0, 0)" stroke="rgb(204, 204, 204)" stroke-width="1px"></line><line x1="50" y1="171.81818181818178" x2="45" y2="171.81818181818178" style="visibility: inherit;" fill="rgb(0, 0, 0)" stroke="rgb(204, 204, 204)" stroke-width="1px"></line><line x1="50" y1="137.45454545454558" x2="45" y2="137.45454545454558" style="visibility: inherit;" fill="rgb(0, 0, 0)" stroke="rgb(204, 204, 204)" stroke-width="1px"></line><line x1="50" y1="103.09090909090921" x2="45" y2="103.09090909090921" style="visibility: inherit;" fill="rgb(0, 0, 0)" stroke="rgb(204, 204, 204)" stroke-width="1px"></line><line x1="50" y1="68.72727272727279" x2="45" y2="68.72727272727279" style="visibility: inherit;" fill="rgb(0, 0, 0)" stroke="rgb(204, 204, 204)" stroke-width="1px"></line><line x1="50" y1="34.36363636363642" x2="45" y2="34.36363636363642" style="visibility: inherit;" fill="rgb(0, 0, 0)" stroke="rgb(204, 204, 204)" stroke-width="1px"></line><line x1="50" y1="0" x2="45" y2="0" style="visibility: inherit;" fill="rgb(0, 0, 0)" stroke="rgb(204, 204, 204)" stroke-width="1px"></line></g><g transform="translate(40, 0)"><text x="0" y="378" dx="0em" dy="0.3em" style="text-anchor: end; visibility: hidden; font-family: Roboto, sans-serif; font-size: 12px; font-weight: 200;" fill="rgb(50, 49, 63)" stroke="none" stroke-width="1px">0.8</text><text x="0" y="343.6363636363638" dx="0em" dy="0.3em" style="text-anchor: end; visibility: inherit; font-family: Roboto, sans-serif; font-size: 12px; font-weight: 200;" fill="rgb(50, 49, 63)" stroke="none" stroke-width="1px">0.82</text><text x="0" y="309.2727272727274" dx="0em" dy="0.3em" style="text-anchor: end; visibility: inherit; font-family: Roboto, sans-serif; font-size: 12px; font-weight: 200;" fill="rgb(50, 49, 63)" stroke="none" stroke-width="1px">0.84</text><text x="0" y="274.909090909091" dx="0em" dy="0.3em" style="text-anchor: end; visibility: inherit; font-family: Roboto, sans-serif; font-size: 12px; font-weight: 200;" fill="rgb(50, 49, 63)" stroke="none" stroke-width="1px">0.86</text><text x="0" y="240.5454545454546" dx="0em" dy="0.3em" style="text-anchor: end; visibility: inherit; font-family: Roboto, sans-serif; font-size: 12px; font-weight: 200;" fill="rgb(50, 49, 63)" stroke="none" stroke-width="1px">0.88</text><text x="0" y="206.18181818181822" dx="0em" dy="0.3em" style="text-anchor: end; visibility: inherit; font-family: Roboto, sans-serif; font-size: 12px; font-weight: 200;" fill="rgb(50, 49, 63)" stroke="none" stroke-width="1px">0.9</text><text x="0" y="171.81818181818178" dx="0em" dy="0.3em" style="text-anchor: end; visibility: inherit; font-family: Roboto, sans-serif; font-size: 12px; font-weight: 200;" fill="rgb(50, 49, 63)" stroke="none" stroke-width="1px">0.92</text><text x="0" y="137.45454545454558" dx="0em" dy="0.3em" style="text-anchor: end; visibility: inherit; font-family: Roboto, sans-serif; font-size: 12px; font-weight: 200;" fill="rgb(50, 49, 63)" stroke="none" stroke-width="1px">0.94</text><text x="0" y="103.09090909090921" dx="0em" dy="0.3em" style="text-anchor: end; visibility: inherit; font-family: Roboto, sans-serif; font-size: 12px; font-weight: 200;" fill="rgb(50, 49, 63)" stroke="none" stroke-width="1px">0.96</text><text x="0" y="68.72727272727279" dx="0em" dy="0.3em" style="text-anchor: end; visibility: inherit; font-family: Roboto, sans-serif; font-size: 12px; font-weight: 200;" fill="rgb(50, 49, 63)" stroke="none" stroke-width="1px">0.98</text><text x="0" y="34.36363636363642" dx="0em" dy="0.3em" style="text-anchor: end; visibility: inherit; font-family: Roboto, sans-serif; font-size: 12px; font-weight: 200;" fill="rgb(50, 49, 63)" stroke="none" stroke-width="1px">1</text><text x="0" y="0" dx="0em" dy="0.3em" style="text-anchor: end; visibility: hidden; font-family: Roboto, sans-serif; font-size: 12px; font-weight: 200;" fill="rgb(50, 49, 63)" stroke="none" stroke-width="1px">1.02</text></g><line x1="50" y1="0" x2="50" y2="378" fill="rgb(0, 0, 0)" stroke="rgb(204, 204, 204)" stroke-width="1px"></line></g></g><g transform="translate(50, 0)" clip-path="url(#clip_0)"><clipPath id="clip_0"><rect width="2103" height="378"></rect></clipPath><g><g><g><line x1="0" y1="0" x2="0" y2="378" fill="rgb(0, 0, 0)" stroke="rgb(60, 60, 60)" stroke-width="1px" opacity="0.25"></line><line x1="175.25" y1="0" x2="175.25" y2="378" fill="rgb(0, 0, 0)" stroke="rgb(60, 60, 60)" stroke-width="1px" opacity="0.25"></line><line x1="350.5" y1="0" x2="350.5" y2="378" fill="rgb(0, 0, 0)" stroke="rgb(60, 60, 60)" stroke-width="1px" opacity="0.25"></line><line x1="525.75" y1="0" x2="525.75" y2="378" fill="rgb(0, 0, 0)" stroke="rgb(60, 60, 60)" stroke-width="1px" opacity="0.25"></line><line x1="701" y1="0" x2="701" y2="378" fill="rgb(0, 0, 0)" stroke="rgb(60, 60, 60)" stroke-width="1px" opacity="0.25"></line><line x1="876.25" y1="0" x2="876.25" y2="378" fill="rgb(0, 0, 0)" stroke="rgb(60, 60, 60)" stroke-width="1px" opacity="0.25"></line><line x1="1051.5" y1="0" x2="1051.5" y2="378" fill="rgb(0, 0, 0)" stroke="rgb(60, 60, 60)" stroke-width="1px" opacity="0.25"></line><line x1="1226.75" y1="0" x2="1226.75" y2="378" fill="rgb(0, 0, 0)" stroke="rgb(60, 60, 60)" stroke-width="1px" opacity="0.25"></line><line x1="1402" y1="0" x2="1402" y2="378" fill="rgb(0, 0, 0)" stroke="rgb(60, 60, 60)" stroke-width="1px" opacity="0.25"></line><line x1="1577.25" y1="0" x2="1577.25" y2="378" fill="rgb(0, 0, 0)" stroke="rgb(60, 60, 60)" stroke-width="1px" opacity="0.25"></line><line x1="1752.5" y1="0" x2="1752.5" y2="378" fill="rgb(0, 0, 0)" stroke="rgb(60, 60, 60)" stroke-width="1px" opacity="0.25"></line><line x1="1927.75" y1="0" x2="1927.75" y2="378" fill="rgb(0, 0, 0)" stroke="rgb(60, 60, 60)" stroke-width="1px" opacity="0.25"></line><line x1="2103" y1="0" x2="2103" y2="378" fill="rgb(0, 0, 0)" stroke="rgb(60, 60, 60)" stroke-width="1px" opacity="0.25"></line></g><g><line x1="0" y1="378" x2="2103" y2="378" fill="rgb(0, 0, 0)" stroke="rgb(60, 60, 60)" stroke-width="1px" opacity="0.25"></line><line x1="0" y1="343.6363636363638" x2="2103" y2="343.6363636363638" fill="rgb(0, 0, 0)" stroke="rgb(60, 60, 60)" stroke-width="1px" opacity="0.25"></line><line x1="0" y1="309.2727272727274" x2="2103" y2="309.2727272727274" fill="rgb(0, 0, 0)" stroke="rgb(60, 60, 60)" stroke-width="1px" opacity="0.25"></line><line x1="0" y1="274.909090909091" x2="2103" y2="274.909090909091" fill="rgb(0, 0, 0)" stroke="rgb(60, 60, 60)" stroke-width="1px" opacity="0.25"></line><line x1="0" y1="240.5454545454546" x2="2103" y2="240.5454545454546" fill="rgb(0, 0, 0)" stroke="rgb(60, 60, 60)" stroke-width="1px" opacity="0.25"></line><line x1="0" y1="206.18181818181822" x2="2103" y2="206.18181818181822" fill="rgb(0, 0, 0)" stroke="rgb(60, 60, 60)" stroke-width="1px" opacity="0.25"></line><line x1="0" y1="171.81818181818178" x2="2103" y2="171.81818181818178" fill="rgb(0, 0, 0)" stroke="rgb(60, 60, 60)" stroke-width="1px" opacity="0.25"></line><line x1="0" y1="137.45454545454558" x2="2103" y2="137.45454545454558" fill="rgb(0, 0, 0)" stroke="rgb(60, 60, 60)" stroke-width="1px" opacity="0.25"></line><line x1="0" y1="103.09090909090921" x2="2103" y2="103.09090909090921" fill="rgb(0, 0, 0)" stroke="rgb(60, 60, 60)" stroke-width="1px" opacity="0.25"></line><line x1="0" y1="68.72727272727279" x2="2103" y2="68.72727272727279" fill="rgb(0, 0, 0)" stroke="rgb(60, 60, 60)" stroke-width="1px" opacity="0.25"></line><line x1="0" y1="34.36363636363642" x2="2103" y2="34.36363636363642" fill="rgb(0, 0, 0)" stroke="rgb(60, 60, 60)" stroke-width="1px" opacity="0.25"></line><line x1="0" y1="0" x2="2103" y2="0" fill="rgb(0, 0, 0)" stroke="rgb(60, 60, 60)" stroke-width="1px" opacity="0.25"></line></g></g></g><g><g><line x1="0" y1="1752.5454545454547" x2="2103" y2="1752.5454545454547" fill="rgb(0, 0, 0)" stroke="rgb(153, 153, 153)" stroke-width="1.5px"></line></g></g><g><g><line x1="175.25" y1="0" x2="175.25" y2="378" fill="rgb(0, 0, 0)" stroke="rgb(153, 153, 153)" stroke-width="1.5px"></line></g></g><g><g><g><g><g><path stroke="rgb(204, 51, 17)" stroke-width="2px" d="M245.35,460.1255065229807L280.4,365.8757231730921L315.45,309.97674752955146L350.5,272.44757262838135L385.54999999999995,245.00451541541779L420.6,224.10229465669468L455.65000000000003,208.01571728642435L490.7,194.62738939741095L525.75,183.71955923820366L560.8,173.80284806375553L595.85,165.7292239578296L630.9,157.89127612555075L665.9499999999999,151.3379923344358L701,144.65892060631026L736.05,138.6483582977991L771.0999999999999,132.48832332071356L806.1500000000001,128.01398881564617L841.2,124.05814076583262L876.25,120.59656155170242L911.3000000000001,116.66403774694525L946.35,114.16709951197535L981.4,110.40093202497505L1016.45,106.83545530021637L1051.5,103.68816014895773L1086.5500000000002,101.50197529478267L1121.6,99.14792026502003L1156.65,97.00238502030656L1191.7,94.46650278768564L1226.75,91.99426631362253L1261.8,90.24748110063393L1296.8500000000001,88.75264964786832L1331.8999999999999,87.6954152172232L1366.95,86.0301582609229L1402,85.01953401638443L1437.05,83.9320706641172L1472.1,82.90161186182257L1507.15,80.93166709458929L1542.1999999999998,79.85280825508798L1577.25,78.17457665086049L1612.3000000000002,77.28217484222871L1647.35,77.43403860139433L1682.4,76.31096472614718L1717.45,75.94640348439572L1752.5,74.27293020303452L1787.55,73.54375997883939L1822.6000000000001,72.93441115113238L1857.6499999999999,71.43481850252994L1892.7,71.49724053680497L1927.75,70.5610460328631" style="fill: none;" fill="none"></path></g><g><path stroke="rgb(238, 51, 119)" stroke-width="2px" d="M210.3,401.1954938715155L245.35,348.25400052016437L280.4,309.78120212121445L315.45,283.25369552805796L350.5,266.1459328299644L385.54999999999995,249.99779682090556L420.6,237.6232053478347L455.65000000000003,228.67640780524374L490.7,219.44815239921695L525.75,213.55618111184523L560.8,211.0095634060453L595.85,207.35234054449327L630.9,204.75021912009808L665.9499999999999,205.87358293429358L701,204.62177708102828L736.05,199.3337750087174L771.0999999999999,197.33047916837995L806.1500000000001,194.75405133552513L841.2,194.44552886548888L876.25,192.4047020335561L911.3000000000001,193.99815066323075L946.35,191.93014744144492L981.4,192.27011920231698L1016.45,190.13734312220703L1051.5,188.1016792364023L1086.5500000000002,191.3475688891443L1121.6,187.59072527102776L1156.65,185.06170764770323L1191.7,185.8123065719085L1226.75,187.01866847275738L1261.8,186.91774409970574L1296.8500000000001,186.51357799996444L1331.8999999999999,186.2023396801386L1366.95,183.33523881796197L1402,182.50841731470507L1437.05,181.59997428317834L1472.1,183.11674108439303L1507.15,183.8206260911407L1542.1999999999998,185.41130978672956L1577.25,182.58570721579196L1612.3000000000002,181.78378462248068L1647.35,180.3404534430402L1682.4,181.60502601509427L1717.45,178.7899318437124L1752.5,179.84997182176403L1787.55,178.35546549437976L1822.6000000000001,179.79546707931596L1857.6499999999999,179.21620159510792L1892.7,180.38064741699986L1927.75,176.8182133174194" style="fill: none;" fill="none"></path></g></g></g></g><g opacity="0.2"><g><g><g><path stroke="rgb(204, 51, 17)" stroke-width="2px" d="M210.3,658.664955594323L245.35,341.0018370801753L280.4,275.3959311571989L315.45,244.2395521727476L350.5,223.44948187741372L385.54999999999995,207.0408877892928L420.6,194.21178453618836L455.65000000000003,184.56133304942745L490.7,174.8822063099255L525.75,167.52270269393924L560.8,159.0177251425657L595.85,153.66272410479462L630.9,146.15994663672018L665.9499999999999,141.52090521292257L701,134.64816401221543L736.05,129.6367539492521L771.0999999999999,123.25087757544088L806.1500000000001,121.30362309109084L841.2,118.12497132474729L876.25,115.4045091325587L911.3000000000001,110.7654677087611L946.35,110.4217743223364L981.4,104.75175515088173L1016.45,101.48728244954893L1051.5,98.96723979169676L1086.5500000000002,98.22270733659923L1121.6,95.61684374375781L1156.65,93.78408544713804L1191.7,90.66268177465963L1226.75,88.28591296889567L1261.8,87.62730386040434L1296.8500000000001,86.51040276614106L1331.8999999999999,86.1095636974682L1366.95,83.53227294575088L1402,83.50359769300985L1437.05,82.30087566375737L1472.1,81.3559236743234L1507.15,77.97674996202647L1542.1999999999998,78.23452000184497L1577.25,75.65722925012767L1612.3000000000002,75.94357213107025L1647.35,77.66183423995976L1682.4,74.6263539140875L1717.45,75.39956162192607L1752.5,71.76272028142759L1787.55,72.45000464266002L1822.6000000000001,72.02038790962915L1857.6499999999999,69.18542952971029L1892.7,71.59087358821527L1927.75,69.15675427696924" style="fill: none;" fill="none"></path></g><g><path stroke="rgb(238, 51, 119)" stroke-width="2px" d="M210.3,401.1954938715155L245.35,316.4891045093537L280.4,272.8473156582226L315.45,252.0573477745057L350.5,243.8100378513337L385.54999999999995,227.6591113914143L420.6,219.9273415478794L455.65000000000003,215.63189109888953L490.7,205.83826817165723L525.75,204.8072904240002L560.8,207.21273448250517L595.85,201.8864086974751L630.9,200.85553336143502L665.9499999999999,207.55642786892983L701,202.74553975191992L736.05,191.4055014090105L771.0999999999999,194.32638313553556L806.1500000000001,190.8900637409904L841.2,193.98279216072783L876.25,189.34364832531324L911.3000000000001,196.3882362192328L946.35,188.8282106572932L981.4,192.78007013147533L1016.45,186.93820426680833L1051.5,185.04819787632343L1086.5500000000002,196.21638952602046L1121.6,181.955469456586L1156.65,181.2681850953536L1191.7,186.93820426680833L1226.75,188.8282106572932L1261.8,186.76635757359597L1296.8500000000001,185.90732893076813L1331.8999999999999,185.73548223755583L1366.95,179.034587730061L1402,181.2681850953536L1437.05,180.23730975931346L1472.1,185.3918912627481L1507.15,184.876453594728L1542.1999999999998,187.79733532125306L1577.25,178.3473033688286L1612.3000000000002,180.5809007341212L1647.35,178.17545667561623L1682.4,183.5018848722632L1717.45,174.56729058785876L1752.5,181.44003178856596L1787.55,176.11370600353595L1822.6000000000001,181.955469456586L1857.6499999999999,178.3473033688286L1892.7,182.12731614979836L1927.75,171.47456216812137" style="fill: none;" fill="none"></path></g></g></g></g></g></g><g transform="translate(50, 378)" clip-path="url(#clip_1)"><clipPath id="clip_1"><rect width="2103" height="22"></rect></clipPath><g><g><line x1="0" y1="0" x2="0" y2="5" style="visibility: inherit;" fill="rgb(0, 0, 0)" stroke="rgb(204, 204, 204)" stroke-width="1px"></line><line x1="175.25" y1="0" x2="175.25" y2="5" style="visibility: inherit;" fill="rgb(0, 0, 0)" stroke="rgb(204, 204, 204)" stroke-width="1px"></line><line x1="350.5" y1="0" x2="350.5" y2="5" style="visibility: inherit;" fill="rgb(0, 0, 0)" stroke="rgb(204, 204, 204)" stroke-width="1px"></line><line x1="525.75" y1="0" x2="525.75" y2="5" style="visibility: inherit;" fill="rgb(0, 0, 0)" stroke="rgb(204, 204, 204)" stroke-width="1px"></line><line x1="701" y1="0" x2="701" y2="5" style="visibility: inherit;" fill="rgb(0, 0, 0)" stroke="rgb(204, 204, 204)" stroke-width="1px"></line><line x1="876.25" y1="0" x2="876.25" y2="5" style="visibility: inherit;" fill="rgb(0, 0, 0)" stroke="rgb(204, 204, 204)" stroke-width="1px"></line><line x1="1051.5" y1="0" x2="1051.5" y2="5" style="visibility: inherit;" fill="rgb(0, 0, 0)" stroke="rgb(204, 204, 204)" stroke-width="1px"></line><line x1="1226.75" y1="0" x2="1226.75" y2="5" style="visibility: inherit;" fill="rgb(0, 0, 0)" stroke="rgb(204, 204, 204)" stroke-width="1px"></line><line x1="1402" y1="0" x2="1402" y2="5" style="visibility: inherit;" fill="rgb(0, 0, 0)" stroke="rgb(204, 204, 204)" stroke-width="1px"></line><line x1="1577.25" y1="0" x2="1577.25" y2="5" style="visibility: inherit;" fill="rgb(0, 0, 0)" stroke="rgb(204, 204, 204)" stroke-width="1px"></line><line x1="1752.5" y1="0" x2="1752.5" y2="5" style="visibility: inherit;" fill="rgb(0, 0, 0)" stroke="rgb(204, 204, 204)" stroke-width="1px"></line><line x1="1927.75" y1="0" x2="1927.75" y2="5" style="visibility: inherit;" fill="rgb(0, 0, 0)" stroke="rgb(204, 204, 204)" stroke-width="1px"></line><line x1="2103" y1="0" x2="2103" y2="5" style="visibility: inherit;" fill="rgb(0, 0, 0)" stroke="rgb(204, 204, 204)" stroke-width="1px"></line></g><g transform="translate(0, 8)"><text x="0" y="0" dx="0em" dy="0.95em" style="text-anchor: middle; visibility: hidden; font-family: Roboto, sans-serif; font-size: 12px; font-weight: 200;" fill="rgb(50, 49, 63)" stroke="none" stroke-width="1px">-5</text><text x="175.25" y="0" dx="0em" dy="0.95em" style="text-anchor: middle; visibility: inherit; font-family: Roboto, sans-serif; font-size: 12px; font-weight: 200;" fill="rgb(50, 49, 63)" stroke="none" stroke-width="1px">0</text><text x="350.5" y="0" dx="0em" dy="0.95em" style="text-anchor: middle; visibility: inherit; font-family: Roboto, sans-serif; font-size: 12px; font-weight: 200;" fill="rgb(50, 49, 63)" stroke="none" stroke-width="1px">5</text><text x="525.75" y="0" dx="0em" dy="0.95em" style="text-anchor: middle; visibility: inherit; font-family: Roboto, sans-serif; font-size: 12px; font-weight: 200;" fill="rgb(50, 49, 63)" stroke="none" stroke-width="1px">10</text><text x="701" y="0" dx="0em" dy="0.95em" style="text-anchor: middle; visibility: inherit; font-family: Roboto, sans-serif; font-size: 12px; font-weight: 200;" fill="rgb(50, 49, 63)" stroke="none" stroke-width="1px">15</text><text x="876.25" y="0" dx="0em" dy="0.95em" style="text-anchor: middle; visibility: inherit; font-family: Roboto, sans-serif; font-size: 12px; font-weight: 200;" fill="rgb(50, 49, 63)" stroke="none" stroke-width="1px">20</text><text x="1051.5" y="0" dx="0em" dy="0.95em" style="text-anchor: middle; visibility: inherit; font-family: Roboto, sans-serif; font-size: 12px; font-weight: 200;" fill="rgb(50, 49, 63)" stroke="none" stroke-width="1px">25</text><text x="1226.75" y="0" dx="0em" dy="0.95em" style="text-anchor: middle; visibility: inherit; font-family: Roboto, sans-serif; font-size: 12px; font-weight: 200;" fill="rgb(50, 49, 63)" stroke="none" stroke-width="1px">30</text><text x="1402" y="0" dx="0em" dy="0.95em" style="text-anchor: middle; visibility: inherit; font-family: Roboto, sans-serif; font-size: 12px; font-weight: 200;" fill="rgb(50, 49, 63)" stroke="none" stroke-width="1px">35</text><text x="1577.25" y="0" dx="0em" dy="0.95em" style="text-anchor: middle; visibility: inherit; font-family: Roboto, sans-serif; font-size: 12px; font-weight: 200;" fill="rgb(50, 49, 63)" stroke="none" stroke-width="1px">40</text><text x="1752.5" y="0" dx="0em" dy="0.95em" style="text-anchor: middle; visibility: inherit; font-family: Roboto, sans-serif; font-size: 12px; font-weight: 200;" fill="rgb(50, 49, 63)" stroke="none" stroke-width="1px">45</text><text x="1927.75" y="0" dx="0em" dy="0.95em" style="text-anchor: middle; visibility: inherit; font-family: Roboto, sans-serif; font-size: 12px; font-weight: 200;" fill="rgb(50, 49, 63)" stroke="none" stroke-width="1px">50</text><text x="2103" y="0" dx="0em" dy="0.95em" style="text-anchor: middle; visibility: hidden; font-family: Roboto, sans-serif; font-size: 12px; font-weight: 200;" fill="rgb(50, 49, 63)" stroke="none" stroke-width="1px">55</text></g><line x1="0" y1="0" x2="2103" y2="0" fill="rgb(0, 0, 0)" stroke="rgb(204, 204, 204)" stroke-width="1px"></line></g></g></g></g></svg>