<svg viewBox="0 0 2153 400" xmlns="http://www.w3.org/2000/svg"><g><g><g><g><g><line x1="50" y1="378" x2="45" y2="378" style="visibility: inherit;" fill="rgb(0, 0, 0)" stroke="rgb(204, 204, 204)" stroke-width="1px"></line><line x1="50" y1="343.6363636363638" x2="45" y2="343.6363636363638" style="visibility: inherit;" fill="rgb(0, 0, 0)" stroke="rgb(204, 204, 204)" stroke-width="1px"></line><line x1="50" y1="309.2727272727274" x2="45" y2="309.2727272727274" style="visibility: inherit;" fill="rgb(0, 0, 0)" stroke="rgb(204, 204, 204)" stroke-width="1px"></line><line x1="50" y1="274.909090909091" x2="45" y2="274.909090909091" style="visibility: inherit;" fill="rgb(0, 0, 0)" stroke="rgb(204, 204, 204)" stroke-width="1px"></line><line x1="50" y1="240.5454545454546" x2="45" y2="240.5454545454546" style="visibility: inherit;" fill="rgb(0, 0, 0)" stroke="rgb(204, 204, 204)" stroke-width="1px"></line><line x1="50" y1="206.18181818181822" x2="45" y2="206.18181818181822" style="visibility: inherit;" fill="rgb(0, 0, 0)" stroke="rgb(204, 204, 204)" stroke-width="1px"></line><line x1="50" y1="171.81818181818178" x2="45" y2="171.81818181818178" style="visibility: inherit;" fill="rgb(0, 0, 0)" stroke="rgb(204, 204, 204)" stroke-width="1px"></line><line x1="50" y1="137.45454545454558" x2="45" y2="137.45454545454558" style="visibility: inherit;" fill="rgb(0, 0, 0)" stroke="rgb(204, 204, 204)" stroke-width="1px"></line><line x1="50" y1="103.09090909090921" x2="45" y2="103.09090909090921" style="visibility: inherit;" fill="rgb(0, 0, 0)" stroke="rgb(204, 204, 204)" stroke-width="1px"></line><line x1="50" y1="68.72727272727279" x2="45" y2="68.72727272727279" style="visibility: inherit;" fill="rgb(0, 0, 0)" stroke="rgb(204, 204, 204)" stroke-width="1px"></line><line x1="50" y1="34.36363636363642" x2="45" y2="34.36363636363642" style="visibility: inherit;" fill="rgb(0, 0, 0)" stroke="rgb(204, 204, 204)" stroke-width="1px"></line><line x1="50" y1="0" x2="45" y2="0" style="visibility: inherit;" fill="rgb(0, 0, 0)" stroke="rgb(204, 204, 204)" stroke-width="1px"></line></g><g transform="translate(40, 0)"><text x="0" y="378" dx="0em" dy="0.3em" style="text-anchor: end; visibility: hidden; font-family: Roboto, sans-serif; font-size: 12px; font-weight: 200;" fill="rgb(50, 49, 63)" stroke="none" stroke-width="1px">0.8</text><text x="0" y="343.6363636363638" dx="0em" dy="0.3em" style="text-anchor: end; visibility: inherit; font-family: Roboto, sans-serif; font-size: 12px; font-weight: 200;" fill="rgb(50, 49, 63)" stroke="none" stroke-width="1px">0.82</text><text x="0" y="309.2727272727274" dx="0em" dy="0.3em" style="text-anchor: end; visibility: inherit; font-family: Roboto, sans-serif; font-size: 12px; font-weight: 200;" fill="rgb(50, 49, 63)" stroke="none" stroke-width="1px">0.84</text><text x="0" y="274.909090909091" dx="0em" dy="0.3em" style="text-anchor: end; visibility: inherit; font-family: Roboto, sans-serif; font-size: 12px; font-weight: 200;" fill="rgb(50, 49, 63)" stroke="none" stroke-width="1px">0.86</text><text x="0" y="240.5454545454546" dx="0em" dy="0.3em" style="text-anchor: end; visibility: inherit; font-family: Roboto, sans-serif; font-size: 12px; font-weight: 200;" fill="rgb(50, 49, 63)" stroke="none" stroke-width="1px">0.88</text><text x="0" y="206.18181818181822" dx="0em" dy="0.3em" style="text-anchor: end; visibility: inherit; font-family: Roboto, sans-serif; font-size: 12px; font-weight: 200;" fill="rgb(50, 49, 63)" stroke="none" stroke-width="1px">0.9</text><text x="0" y="171.81818181818178" dx="0em" dy="0.3em" style="text-anchor: end; visibility: inherit; font-family: Roboto, sans-serif; font-size: 12px; font-weight: 200;" fill="rgb(50, 49, 63)" stroke="none" stroke-width="1px">0.92</text><text x="0" y="137.45454545454558" dx="0em" dy="0.3em" style="text-anchor: end; visibility: inherit; font-family: Roboto, sans-serif; font-size: 12px; font-weight: 200;" fill="rgb(50, 49, 63)" stroke="none" stroke-width="1px">0.94</text><text x="0" y="103.09090909090921" dx="0em" dy="0.3em" style="text-anchor: end; visibility: inherit; font-family: Roboto, sans-serif; font-size: 12px; font-weight: 200;" fill="rgb(50, 49, 63)" stroke="none" stroke-width="1px">0.96</text><text x="0" y="68.72727272727279" dx="0em" dy="0.3em" style="text-anchor: end; visibility: inherit; font-family: Roboto, sans-serif; font-size: 12px; font-weight: 200;" fill="rgb(50, 49, 63)" stroke="none" stroke-width="1px">0.98</text><text x="0" y="34.36363636363642" dx="0em" dy="0.3em" style="text-anchor: end; visibility: inherit; font-family: Roboto, sans-serif; font-size: 12px; font-weight: 200;" fill="rgb(50, 49, 63)" stroke="none" stroke-width="1px">1</text><text x="0" y="0" dx="0em" dy="0.3em" style="text-anchor: end; visibility: hidden; font-family: Roboto, sans-serif; font-size: 12px; font-weight: 200;" fill="rgb(50, 49, 63)" stroke="none" stroke-width="1px">1.02</text></g><line x1="50" y1="0" x2="50" y2="378" fill="rgb(0, 0, 0)" stroke="rgb(204, 204, 204)" stroke-width="1px"></line></g></g><g transform="translate(50, 0)" clip-path="url(#clip_0)"><clipPath id="clip_0"><rect width="2103" height="378"></rect></clipPath><g><g><g><line x1="0" y1="0" x2="0" y2="378" fill="rgb(0, 0, 0)" stroke="rgb(60, 60, 60)" stroke-width="1px" opacity="0.25"></line><line x1="175.25" y1="0" x2="175.25" y2="378" fill="rgb(0, 0, 0)" stroke="rgb(60, 60, 60)" stroke-width="1px" opacity="0.25"></line><line x1="350.5" y1="0" x2="350.5" y2="378" fill="rgb(0, 0, 0)" stroke="rgb(60, 60, 60)" stroke-width="1px" opacity="0.25"></line><line x1="525.75" y1="0" x2="525.75" y2="378" fill="rgb(0, 0, 0)" stroke="rgb(60, 60, 60)" stroke-width="1px" opacity="0.25"></line><line x1="701" y1="0" x2="701" y2="378" fill="rgb(0, 0, 0)" stroke="rgb(60, 60, 60)" stroke-width="1px" opacity="0.25"></line><line x1="876.25" y1="0" x2="876.25" y2="378" fill="rgb(0, 0, 0)" stroke="rgb(60, 60, 60)" stroke-width="1px" opacity="0.25"></line><line x1="1051.5" y1="0" x2="1051.5" y2="378" fill="rgb(0, 0, 0)" stroke="rgb(60, 60, 60)" stroke-width="1px" opacity="0.25"></line><line x1="1226.75" y1="0" x2="1226.75" y2="378" fill="rgb(0, 0, 0)" stroke="rgb(60, 60, 60)" stroke-width="1px" opacity="0.25"></line><line x1="1402" y1="0" x2="1402" y2="378" fill="rgb(0, 0, 0)" stroke="rgb(60, 60, 60)" stroke-width="1px" opacity="0.25"></line><line x1="1577.25" y1="0" x2="1577.25" y2="378" fill="rgb(0, 0, 0)" stroke="rgb(60, 60, 60)" stroke-width="1px" opacity="0.25"></line><line x1="1752.5" y1="0" x2="1752.5" y2="378" fill="rgb(0, 0, 0)" stroke="rgb(60, 60, 60)" stroke-width="1px" opacity="0.25"></line><line x1="1927.75" y1="0" x2="1927.75" y2="378" fill="rgb(0, 0, 0)" stroke="rgb(60, 60, 60)" stroke-width="1px" opacity="0.25"></line><line x1="2103" y1="0" x2="2103" y2="378" fill="rgb(0, 0, 0)" stroke="rgb(60, 60, 60)" stroke-width="1px" opacity="0.25"></line></g><g><line x1="0" y1="378" x2="2103" y2="378" fill="rgb(0, 0, 0)" stroke="rgb(60, 60, 60)" stroke-width="1px" opacity="0.25"></line><line x1="0" y1="343.6363636363638" x2="2103" y2="343.6363636363638" fill="rgb(0, 0, 0)" stroke="rgb(60, 60, 60)" stroke-width="1px" opacity="0.25"></line><line x1="0" y1="309.2727272727274" x2="2103" y2="309.2727272727274" fill="rgb(0, 0, 0)" stroke="rgb(60, 60, 60)" stroke-width="1px" opacity="0.25"></line><line x1="0" y1="274.909090909091" x2="2103" y2="274.909090909091" fill="rgb(0, 0, 0)" stroke="rgb(60, 60, 60)" stroke-width="1px" opacity="0.25"></line><line x1="0" y1="240.5454545454546" x2="2103" y2="240.5454545454546" fill="rgb(0, 0, 0)" stroke="rgb(60, 60, 60)" stroke-width="1px" opacity="0.25"></line><line x1="0" y1="206.18181818181822" x2="2103" y2="206.18181818181822" fill="rgb(0, 0, 0)" stroke="rgb(60, 60, 60)" stroke-width="1px" opacity="0.25"></line><line x1="0" y1="171.81818181818178" x2="2103" y2="171.81818181818178" fill="rgb(0, 0, 0)" stroke="rgb(60, 60, 60)" stroke-width="1px" opacity="0.25"></line><line x1="0" y1="137.45454545454558" x2="2103" y2="137.45454545454558" fill="rgb(0, 0, 0)" stroke="rgb(60, 60, 60)" stroke-width="1px" opacity="0.25"></line><line x1="0" y1="103.09090909090921" x2="2103" y2="103.09090909090921" fill="rgb(0, 0, 0)" stroke="rgb(60, 60, 60)" stroke-width="1px" opacity="0.25"></line><line x1="0" y1="68.72727272727279" x2="2103" y2="68.72727272727279" fill="rgb(0, 0, 0)" stroke="rgb(60, 60, 60)" stroke-width="1px" opacity="0.25"></line><line x1="0" y1="34.36363636363642" x2="2103" y2="34.36363636363642" fill="rgb(0, 0, 0)" stroke="rgb(60, 60, 60)" stroke-width="1px" opacity="0.25"></line><line x1="0" y1="0" x2="2103" y2="0" fill="rgb(0, 0, 0)" stroke="rgb(60, 60, 60)" stroke-width="1px" opacity="0.25"></line></g></g></g><g><g><line x1="0" y1="1752.5454545454547" x2="2103" y2="1752.5454545454547" fill="rgb(0, 0, 0)" stroke="rgb(153, 153, 153)" stroke-width="1.5px"></line></g></g><g><g><line x1="175.25" y1="0" x2="175.25" y2="378" fill="rgb(0, 0, 0)" stroke="rgb(153, 153, 153)" stroke-width="1.5px"></line></g></g><g><g><g><g><g><path stroke="rgb(204, 51, 17)" stroke-width="2px" d="M245.35,457.8238310353324L280.4,367.27595332071394L315.45,311.259902211992L350.5,273.23633069807374L385.54999999999995,245.81076884125082L420.6,225.495970696649L455.65000000000003,209.483157162308L490.7,195.12004898778343L525.75,182.8615344675336L560.8,173.2892828906328L595.85,165.01973737773184L630.9,156.84662122277751L665.9499999999999,150.71152710361255L701,144.500906894991L736.05,139.51605802409063L771.0999999999999,133.08906578327628L806.1500000000001,128.48895867210024L841.2,123.26633071145847L876.25,119.27381563619652L911.3000000000001,115.62985212192422L946.35,112.2980566440845L981.4,108.47770484504467L1016.45,104.99425550202605L1051.5,102.37726671051155L1086.5500000000002,99.92506688310537L1121.6,97.3426644121809L1156.65,95.23196765108808L1191.7,92.31606734925872L1226.75,90.87581100727581L1261.8,89.93148958149567L1296.8500000000001,88.55162560908556L1331.8999999999999,86.39497794974783L1366.95,85.45607098845636L1402,83.95344842689522L1437.05,82.1584359511581L1472.1,80.66903737594988L1507.15,79.29430942323675L1542.1999999999998,78.02275318082233L1577.25,76.95053635363774L1612.3000000000002,76.03233347817772L1647.35,75.26376658496369L1682.4,73.96641511445536L1717.45,73.48585817912735L1752.5,72.47589080035746L1787.55,71.64079510374755L1822.6000000000001,71.38028209167427L1857.6499999999999,71.23544438553341L1892.7,69.35015280384953L1927.75,69.05518918943733" style="fill: none;" fill="none"></path></g><g><path stroke="rgb(238, 51, 119)" stroke-width="2px" d="M210.3,408.9272637150506L245.35,353.19377365708357L280.4,319.56433935289266L315.45,289.40947483639343L350.5,270.89865107748705L385.54999999999995,256.21676090441173L420.6,244.18188793475647L455.65000000000003,234.94342386089076L490.7,228.598131261344L525.75,218.8164739177474L560.8,212.2957044143445L595.85,207.98512558116474L630.9,202.44565499259124L665.9499999999999,200.98371947310042L701,199.9010196585519L736.05,197.051836061714L771.0999999999999,196.3739312436655L806.1500000000001,194.31761179280443L841.2,192.39664802729484L876.25,192.9623876877214L911.3000000000001,192.27087932936743L946.35,190.61887637210035L981.4,189.28407434321858L1016.45,186.83370958950414L1051.5,187.49407550413582L1086.5500000000002,188.92117094588L1121.6,188.26546095770823L1156.65,185.8789402462806L1191.7,184.65320390055035L1226.75,182.54319335580928L1261.8,185.88194195274787L1296.8500000000001,182.93682496207327L1331.8999999999999,180.07009988719653L1366.95,179.8620700855902L1402,183.58600373285842L1437.05,182.31526480761846L1472.1,180.38442779837501L1507.15,181.7001083454538L1542.1999999999998,181.11498890969415L1577.25,181.1762673840396L1612.3000000000002,179.42615657492755L1647.35,181.1938842846354L1682.4,180.05525191798398L1717.45,180.88407761085335L1752.5,180.4191954029813L1787.55,177.11625585332425L1822.6000000000001,179.5330301064204L1857.6499999999999,178.09656178794927L1892.7,179.09029736643143L1927.75,177.55600839948266" style="fill: none;" fill="none"></path></g></g></g></g><g opacity="0.2"><g><g><g><path stroke="rgb(204, 51, 17)" stroke-width="2px" d="M210.3,658.7795541936702L245.35,337.2503971403296L280.4,280.34999071468013L315.45,245.3850261081349L350.5,223.59275572950196L385.54999999999995,207.87134359099656L420.6,196.44548431309792L455.65000000000003,186.13632130622867L490.7,173.93725432049152L525.75,164.65906906127933L560.8,159.0177251425657L595.85,152.66042160987857L630.9,144.61363363265994L665.9499999999999,141.52090521292257L701,135.19227693297654L736.05,132.042300419374L771.0999999999999,123.45129710977733L806.1500000000001,121.58996597203347L841.2,115.43318438529973L876.25,113.28540795499632L911.3000000000001,110.16410669413483L946.35,107.30047306147492L981.4,102.74725257266657L1016.45,99.76912275227639L1051.5,98.4518021236767L1086.5500000000002,96.24677759950816L1121.6,93.46906731345439L1156.65,92.0659257498655L1191.7,87.94221958247101L1226.75,88.71542729030959L1261.8,88.51500775597319L1296.8500000000001,86.48182992501697L1331.8999999999999,83.16000671820211L1366.95,84.04771061377096L1402,81.69951464913115L1437.05,79.46591728383848L1472.1,78.43493953618142L1507.15,77.23221750692892L1542.1999999999998,76.11541882428261L1577.25,75.34221111644403L1612.3000000000002,74.65502916682856L1647.35,74.11091624606745L1682.4,72.02038790962915L1717.45,72.76502277634363L1752.5,70.96093973246491L1787.55,70.38815155896279L1822.6000000000001,70.98951257358901L1857.6499999999999,71.01818782633006L1892.7,66.52221543138683L1927.75,68.6127437678251" style="fill: none;" fill="none"></path></g><g><path stroke="rgb(238, 51, 119)" stroke-width="2px" d="M210.3,408.9272637150506L245.35,319.7536796223034L280.4,287.28008242086935L315.45,253.9473541649906L350.5,246.73091957785874L385.54999999999995,235.9064213145863L420.6,226.97182703018197L455.65000000000003,221.47365455193957L490.7,219.24005718664694L525.75,204.2918527559801L560.8,202.57369305870756L595.85,201.5427153110505L630.9,194.1545364423232L665.9499999999999,198.7936802777378L701,198.2782426097177L736.05,192.78007013147533L771.0999999999999,195.35736088319263L806.1500000000001,191.23365471579814L841.2,189.5154950185256L876.25,193.81094546751547L911.3000000000001,191.23365471579814L946.35,188.1409262960608L981.4,187.281897653233L1016.45,183.1581914858385L1051.5,188.48461968248546L1086.5500000000002,191.06180802258584L1121.6,187.281897653233L1156.65,182.29916284301072L1191.7,182.81460051103076L1226.75,179.37817870486873L1261.8,190.8900637409904L1296.8500000000001,178.5191500620409L1331.8999999999999,175.77001261711123L1366.95,179.55002539808106L1402,189.17190404371786L1437.05,180.40915645252582L1472.1,177.48817231438383L1507.15,183.6736291538586L1542.1999999999998,180.23730975931346L1577.25,181.2681850953536L1612.3000000000002,176.80099036476835L1647.35,183.84547584707093L1682.4,178.3473033688286L1717.45,182.12731614979836L1752.5,179.72187209129336L1787.55,172.16184652935377L1822.6000000000001,183.1581914858385L1857.6499999999999,175.9418593103236L1892.7,180.5809007341212L1927.75,175.2545749490912" style="fill: none;" fill="none"></path></g></g></g></g></g></g><g transform="translate(50, 378)" clip-path="url(#clip_1)"><clipPath id="clip_1"><rect width="2103" height="22"></rect></clipPath><g><g><line x1="0" y1="0" x2="0" y2="5" style="visibility: inherit;" fill="rgb(0, 0, 0)" stroke="rgb(204, 204, 204)" stroke-width="1px"></line><line x1="175.25" y1="0" x2="175.25" y2="5" style="visibility: inherit;" fill="rgb(0, 0, 0)" stroke="rgb(204, 204, 204)" stroke-width="1px"></line><line x1="350.5" y1="0" x2="350.5" y2="5" style="visibility: inherit;" fill="rgb(0, 0, 0)" stroke="rgb(204, 204, 204)" stroke-width="1px"></line><line x1="525.75" y1="0" x2="525.75" y2="5" style="visibility: inherit;" fill="rgb(0, 0, 0)" stroke="rgb(204, 204, 204)" stroke-width="1px"></line><line x1="701" y1="0" x2="701" y2="5" style="visibility: inherit;" fill="rgb(0, 0, 0)" stroke="rgb(204, 204, 204)" stroke-width="1px"></line><line x1="876.25" y1="0" x2="876.25" y2="5" style="visibility: inherit;" fill="rgb(0, 0, 0)" stroke="rgb(204, 204, 204)" stroke-width="1px"></line><line x1="1051.5" y1="0" x2="1051.5" y2="5" style="visibility: inherit;" fill="rgb(0, 0, 0)" stroke="rgb(204, 204, 204)" stroke-width="1px"></line><line x1="1226.75" y1="0" x2="1226.75" y2="5" style="visibility: inherit;" fill="rgb(0, 0, 0)" stroke="rgb(204, 204, 204)" stroke-width="1px"></line><line x1="1402" y1="0" x2="1402" y2="5" style="visibility: inherit;" fill="rgb(0, 0, 0)" stroke="rgb(204, 204, 204)" stroke-width="1px"></line><line x1="1577.25" y1="0" x2="1577.25" y2="5" style="visibility: inherit;" fill="rgb(0, 0, 0)" stroke="rgb(204, 204, 204)" stroke-width="1px"></line><line x1="1752.5" y1="0" x2="1752.5" y2="5" style="visibility: inherit;" fill="rgb(0, 0, 0)" stroke="rgb(204, 204, 204)" stroke-width="1px"></line><line x1="1927.75" y1="0" x2="1927.75" y2="5" style="visibility: inherit;" fill="rgb(0, 0, 0)" stroke="rgb(204, 204, 204)" stroke-width="1px"></line><line x1="2103" y1="0" x2="2103" y2="5" style="visibility: inherit;" fill="rgb(0, 0, 0)" stroke="rgb(204, 204, 204)" stroke-width="1px"></line></g><g transform="translate(0, 8)"><text x="0" y="0" dx="0em" dy="0.95em" style="text-anchor: middle; visibility: hidden; font-family: Roboto, sans-serif; font-size: 12px; font-weight: 200;" fill="rgb(50, 49, 63)" stroke="none" stroke-width="1px">-5</text><text x="175.25" y="0" dx="0em" dy="0.95em" style="text-anchor: middle; visibility: inherit; font-family: Roboto, sans-serif; font-size: 12px; font-weight: 200;" fill="rgb(50, 49, 63)" stroke="none" stroke-width="1px">0</text><text x="350.5" y="0" dx="0em" dy="0.95em" style="text-anchor: middle; visibility: inherit; font-family: Roboto, sans-serif; font-size: 12px; font-weight: 200;" fill="rgb(50, 49, 63)" stroke="none" stroke-width="1px">5</text><text x="525.75" y="0" dx="0em" dy="0.95em" style="text-anchor: middle; visibility: inherit; font-family: Roboto, sans-serif; font-size: 12px; font-weight: 200;" fill="rgb(50, 49, 63)" stroke="none" stroke-width="1px">10</text><text x="701" y="0" dx="0em" dy="0.95em" style="text-anchor: middle; visibility: inherit; font-family: Roboto, sans-serif; font-size: 12px; font-weight: 200;" fill="rgb(50, 49, 63)" stroke="none" stroke-width="1px">15</text><text x="876.25" y="0" dx="0em" dy="0.95em" style="text-anchor: middle; visibility: inherit; font-family: Roboto, sans-serif; font-size: 12px; font-weight: 200;" fill="rgb(50, 49, 63)" stroke="none" stroke-width="1px">20</text><text x="1051.5" y="0" dx="0em" dy="0.95em" style="text-anchor: middle; visibility: inherit; font-family: Roboto, sans-serif; font-size: 12px; font-weight: 200;" fill="rgb(50, 49, 63)" stroke="none" stroke-width="1px">25</text><text x="1226.75" y="0" dx="0em" dy="0.95em" style="text-anchor: middle; visibility: inherit; font-family: Roboto, sans-serif; font-size: 12px; font-weight: 200;" fill="rgb(50, 49, 63)" stroke="none" stroke-width="1px">30</text><text x="1402" y="0" dx="0em" dy="0.95em" style="text-anchor: middle; visibility: inherit; font-family: Roboto, sans-serif; font-size: 12px; font-weight: 200;" fill="rgb(50, 49, 63)" stroke="none" stroke-width="1px">35</text><text x="1577.25" y="0" dx="0em" dy="0.95em" style="text-anchor: middle; visibility: inherit; font-family: Roboto, sans-serif; font-size: 12px; font-weight: 200;" fill="rgb(50, 49, 63)" stroke="none" stroke-width="1px">40</text><text x="1752.5" y="0" dx="0em" dy="0.95em" style="text-anchor: middle; visibility: inherit; font-family: Roboto, sans-serif; font-size: 12px; font-weight: 200;" fill="rgb(50, 49, 63)" stroke="none" stroke-width="1px">45</text><text x="1927.75" y="0" dx="0em" dy="0.95em" style="text-anchor: middle; visibility: inherit; font-family: Roboto, sans-serif; font-size: 12px; font-weight: 200;" fill="rgb(50, 49, 63)" stroke="none" stroke-width="1px">50</text><text x="2103" y="0" dx="0em" dy="0.95em" style="text-anchor: middle; visibility: hidden; font-family: Roboto, sans-serif; font-size: 12px; font-weight: 200;" fill="rgb(50, 49, 63)" stroke="none" stroke-width="1px">55</text></g><line x1="0" y1="0" x2="2103" y2="0" fill="rgb(0, 0, 0)" stroke="rgb(204, 204, 204)" stroke-width="1px"></line></g></g></g></g></svg>