<svg viewBox="0 0 2153 400" xmlns="http://www.w3.org/2000/svg"><g><g><g><g><g><line x1="60" y1="378" x2="55" y2="378" style="visibility: inherit;" fill="rgb(0, 0, 0)" stroke="rgb(204, 204, 204)" stroke-width="1px"></line><line x1="60" y1="348.92307692307696" x2="55" y2="348.92307692307696" style="visibility: inherit;" fill="rgb(0, 0, 0)" stroke="rgb(204, 204, 204)" stroke-width="1px"></line><line x1="60" y1="319.84615384615387" x2="55" y2="319.84615384615387" style="visibility: inherit;" fill="rgb(0, 0, 0)" stroke="rgb(204, 204, 204)" stroke-width="1px"></line><line x1="60" y1="290.7692307692307" x2="55" y2="290.7692307692307" style="visibility: inherit;" fill="rgb(0, 0, 0)" stroke="rgb(204, 204, 204)" stroke-width="1px"></line><line x1="60" y1="261.6923076923077" x2="55" y2="261.6923076923077" style="visibility: inherit;" fill="rgb(0, 0, 0)" stroke="rgb(204, 204, 204)" stroke-width="1px"></line><line x1="60" y1="232.61538461538464" x2="55" y2="232.61538461538464" style="visibility: inherit;" fill="rgb(0, 0, 0)" stroke="rgb(204, 204, 204)" stroke-width="1px"></line><line x1="60" y1="203.53846153846158" x2="55" y2="203.53846153846158" style="visibility: inherit;" fill="rgb(0, 0, 0)" stroke="rgb(204, 204, 204)" stroke-width="1px"></line><line x1="60" y1="174.46153846153848" x2="55" y2="174.46153846153848" style="visibility: inherit;" fill="rgb(0, 0, 0)" stroke="rgb(204, 204, 204)" stroke-width="1px"></line><line x1="60" y1="145.38461538461542" x2="55" y2="145.38461538461542" style="visibility: inherit;" fill="rgb(0, 0, 0)" stroke="rgb(204, 204, 204)" stroke-width="1px"></line><line x1="60" y1="116.30769230769232" x2="55" y2="116.30769230769232" style="visibility: inherit;" fill="rgb(0, 0, 0)" stroke="rgb(204, 204, 204)" stroke-width="1px"></line><line x1="60" y1="87.23076923076925" x2="55" y2="87.23076923076925" style="visibility: inherit;" fill="rgb(0, 0, 0)" stroke="rgb(204, 204, 204)" stroke-width="1px"></line><line x1="60" y1="58.15384615384616" x2="55" y2="58.15384615384616" style="visibility: inherit;" fill="rgb(0, 0, 0)" stroke="rgb(204, 204, 204)" stroke-width="1px"></line><line x1="60" y1="29.07692307692306" x2="55" y2="29.07692307692306" style="visibility: inherit;" fill="rgb(0, 0, 0)" stroke="rgb(204, 204, 204)" stroke-width="1px"></line><line x1="60" y1="0" x2="55" y2="0" style="visibility: inherit;" fill="rgb(0, 0, 0)" stroke="rgb(204, 204, 204)" stroke-width="1px"></line></g><g transform="translate(50, 0)"><text x="0" y="378" dx="0em" dy="0.3em" style="text-anchor: end; visibility: hidden; font-family: Roboto, sans-serif; font-size: 12px; font-weight: 200;" fill="rgb(50, 49, 63)" stroke="none" stroke-width="1px">-0.05</text><text x="0" y="348.92307692307696" dx="0em" dy="0.3em" style="text-anchor: end; visibility: inherit; font-family: Roboto, sans-serif; font-size: 12px; font-weight: 200;" fill="rgb(50, 49, 63)" stroke="none" stroke-width="1px">0</text><text x="0" y="319.84615384615387" dx="0em" dy="0.3em" style="text-anchor: end; visibility: inherit; font-family: Roboto, sans-serif; font-size: 12px; font-weight: 200;" fill="rgb(50, 49, 63)" stroke="none" stroke-width="1px">0.05</text><text x="0" y="290.7692307692307" dx="0em" dy="0.3em" style="text-anchor: end; visibility: inherit; font-family: Roboto, sans-serif; font-size: 12px; font-weight: 200;" fill="rgb(50, 49, 63)" stroke="none" stroke-width="1px">0.1</text><text x="0" y="261.6923076923077" dx="0em" dy="0.3em" style="text-anchor: end; visibility: inherit; font-family: Roboto, sans-serif; font-size: 12px; font-weight: 200;" fill="rgb(50, 49, 63)" stroke="none" stroke-width="1px">0.15</text><text x="0" y="232.61538461538464" dx="0em" dy="0.3em" style="text-anchor: end; visibility: inherit; font-family: Roboto, sans-serif; font-size: 12px; font-weight: 200;" fill="rgb(50, 49, 63)" stroke="none" stroke-width="1px">0.2</text><text x="0" y="203.53846153846158" dx="0em" dy="0.3em" style="text-anchor: end; visibility: inherit; font-family: Roboto, sans-serif; font-size: 12px; font-weight: 200;" fill="rgb(50, 49, 63)" stroke="none" stroke-width="1px">0.25</text><text x="0" y="174.46153846153848" dx="0em" dy="0.3em" style="text-anchor: end; visibility: inherit; font-family: Roboto, sans-serif; font-size: 12px; font-weight: 200;" fill="rgb(50, 49, 63)" stroke="none" stroke-width="1px">0.3</text><text x="0" y="145.38461538461542" dx="0em" dy="0.3em" style="text-anchor: end; visibility: inherit; font-family: Roboto, sans-serif; font-size: 12px; font-weight: 200;" fill="rgb(50, 49, 63)" stroke="none" stroke-width="1px">0.35</text><text x="0" y="116.30769230769232" dx="0em" dy="0.3em" style="text-anchor: end; visibility: inherit; font-family: Roboto, sans-serif; font-size: 12px; font-weight: 200;" fill="rgb(50, 49, 63)" stroke="none" stroke-width="1px">0.4</text><text x="0" y="87.23076923076925" dx="0em" dy="0.3em" style="text-anchor: end; visibility: inherit; font-family: Roboto, sans-serif; font-size: 12px; font-weight: 200;" fill="rgb(50, 49, 63)" stroke="none" stroke-width="1px">0.45</text><text x="0" y="58.15384615384616" dx="0em" dy="0.3em" style="text-anchor: end; visibility: inherit; font-family: Roboto, sans-serif; font-size: 12px; font-weight: 200;" fill="rgb(50, 49, 63)" stroke="none" stroke-width="1px">0.5</text><text x="0" y="29.07692307692306" dx="0em" dy="0.3em" style="text-anchor: end; visibility: inherit; font-family: Roboto, sans-serif; font-size: 12px; font-weight: 200;" fill="rgb(50, 49, 63)" stroke="none" stroke-width="1px">0.55</text><text x="0" y="0" dx="0em" dy="0.3em" style="text-anchor: end; visibility: hidden; font-family: Roboto, sans-serif; font-size: 12px; font-weight: 200;" fill="rgb(50, 49, 63)" stroke="none" stroke-width="1px">0.6</text></g><line x1="60" y1="0" x2="60" y2="378" fill="rgb(0, 0, 0)" stroke="rgb(204, 204, 204)" stroke-width="1px"></line></g></g><g transform="translate(60, 0)" clip-path="url(#clip_0)"><clipPath id="clip_0"><rect width="2093" height="378"></rect></clipPath><g><g><g><line x1="0" y1="0" x2="0" y2="378" fill="rgb(0, 0, 0)" stroke="rgb(60, 60, 60)" stroke-width="1px" opacity="0.25"></line><line x1="174.41666666666666" y1="0" x2="174.41666666666666" y2="378" fill="rgb(0, 0, 0)" stroke="rgb(60, 60, 60)" stroke-width="1px" opacity="0.25"></line><line x1="348.8333333333333" y1="0" x2="348.8333333333333" y2="378" fill="rgb(0, 0, 0)" stroke="rgb(60, 60, 60)" stroke-width="1px" opacity="0.25"></line><line x1="523.25" y1="0" x2="523.25" y2="378" fill="rgb(0, 0, 0)" stroke="rgb(60, 60, 60)" stroke-width="1px" opacity="0.25"></line><line x1="697.6666666666666" y1="0" x2="697.6666666666666" y2="378" fill="rgb(0, 0, 0)" stroke="rgb(60, 60, 60)" stroke-width="1px" opacity="0.25"></line><line x1="872.0833333333334" y1="0" x2="872.0833333333334" y2="378" fill="rgb(0, 0, 0)" stroke="rgb(60, 60, 60)" stroke-width="1px" opacity="0.25"></line><line x1="1046.5" y1="0" x2="1046.5" y2="378" fill="rgb(0, 0, 0)" stroke="rgb(60, 60, 60)" stroke-width="1px" opacity="0.25"></line><line x1="1220.9166666666667" y1="0" x2="1220.9166666666667" y2="378" fill="rgb(0, 0, 0)" stroke="rgb(60, 60, 60)" stroke-width="1px" opacity="0.25"></line><line x1="1395.3333333333333" y1="0" x2="1395.3333333333333" y2="378" fill="rgb(0, 0, 0)" stroke="rgb(60, 60, 60)" stroke-width="1px" opacity="0.25"></line><line x1="1569.75" y1="0" x2="1569.75" y2="378" fill="rgb(0, 0, 0)" stroke="rgb(60, 60, 60)" stroke-width="1px" opacity="0.25"></line><line x1="1744.1666666666667" y1="0" x2="1744.1666666666667" y2="378" fill="rgb(0, 0, 0)" stroke="rgb(60, 60, 60)" stroke-width="1px" opacity="0.25"></line><line x1="1918.5833333333333" y1="0" x2="1918.5833333333333" y2="378" fill="rgb(0, 0, 0)" stroke="rgb(60, 60, 60)" stroke-width="1px" opacity="0.25"></line><line x1="2093" y1="0" x2="2093" y2="378" fill="rgb(0, 0, 0)" stroke="rgb(60, 60, 60)" stroke-width="1px" opacity="0.25"></line></g><g><line x1="0" y1="378" x2="2093" y2="378" fill="rgb(0, 0, 0)" stroke="rgb(60, 60, 60)" stroke-width="1px" opacity="0.25"></line><line x1="0" y1="348.92307692307696" x2="2093" y2="348.92307692307696" fill="rgb(0, 0, 0)" stroke="rgb(60, 60, 60)" stroke-width="1px" opacity="0.25"></line><line x1="0" y1="319.84615384615387" x2="2093" y2="319.84615384615387" fill="rgb(0, 0, 0)" stroke="rgb(60, 60, 60)" stroke-width="1px" opacity="0.25"></line><line x1="0" y1="290.7692307692307" x2="2093" y2="290.7692307692307" fill="rgb(0, 0, 0)" stroke="rgb(60, 60, 60)" stroke-width="1px" opacity="0.25"></line><line x1="0" y1="261.6923076923077" x2="2093" y2="261.6923076923077" fill="rgb(0, 0, 0)" stroke="rgb(60, 60, 60)" stroke-width="1px" opacity="0.25"></line><line x1="0" y1="232.61538461538464" x2="2093" y2="232.61538461538464" fill="rgb(0, 0, 0)" stroke="rgb(60, 60, 60)" stroke-width="1px" opacity="0.25"></line><line x1="0" y1="203.53846153846158" x2="2093" y2="203.53846153846158" fill="rgb(0, 0, 0)" stroke="rgb(60, 60, 60)" stroke-width="1px" opacity="0.25"></line><line x1="0" y1="174.46153846153848" x2="2093" y2="174.46153846153848" fill="rgb(0, 0, 0)" stroke="rgb(60, 60, 60)" stroke-width="1px" opacity="0.25"></line><line x1="0" y1="145.38461538461542" x2="2093" y2="145.38461538461542" fill="rgb(0, 0, 0)" stroke="rgb(60, 60, 60)" stroke-width="1px" opacity="0.25"></line><line x1="0" y1="116.30769230769232" x2="2093" y2="116.30769230769232" fill="rgb(0, 0, 0)" stroke="rgb(60, 60, 60)" stroke-width="1px" opacity="0.25"></line><line x1="0" y1="87.23076923076925" x2="2093" y2="87.23076923076925" fill="rgb(0, 0, 0)" stroke="rgb(60, 60, 60)" stroke-width="1px" opacity="0.25"></line><line x1="0" y1="58.15384615384616" x2="2093" y2="58.15384615384616" fill="rgb(0, 0, 0)" stroke="rgb(60, 60, 60)" stroke-width="1px" opacity="0.25"></line><line x1="0" y1="29.07692307692306" x2="2093" y2="29.07692307692306" fill="rgb(0, 0, 0)" stroke="rgb(60, 60, 60)" stroke-width="1px" opacity="0.25"></line><line x1="0" y1="0" x2="2093" y2="0" fill="rgb(0, 0, 0)" stroke="rgb(60, 60, 60)" stroke-width="1px" opacity="0.25"></line></g></g></g><g><g><line x1="0" y1="348.92307692307696" x2="2093" y2="348.92307692307696" fill="rgb(0, 0, 0)" stroke="rgb(153, 153, 153)" stroke-width="1.5px"></line></g></g><g><g><line x1="174.41666666666666" y1="0" x2="174.41666666666666" y2="378" fill="rgb(0, 0, 0)" stroke="rgb(153, 153, 153)" stroke-width="1.5px"></line></g></g><g><g><g><g><g><path stroke="rgb(0, 119, 187)" stroke-width="2px" d="M244.18333333333334,-45.65391073547881L279.06666666666666,37.09840977060923L313.95,88.74753017993265L348.8333333333333,123.97503797734204L383.71666666666664,149.98745567930303L418.6,168.84726089515232L453.48333333333335,184.1557256027026L488.3666666666667,197.36755031544052L523.25,208.42285804990368L558.1333333333333,217.35430826328954L593.0166666666667,224.85378727264L627.9,232.1057792622949L662.7833333333333,238.02914489839975L697.6666666666666,244.1929685316656L732.55,249.25973147540995L767.4333333333333,254.56228187364871L802.3166666666667,259.1940442629265L837.2,263.57487275060106L872.0833333333334,267.1321053714533L906.9666666666667,270.91017338418874L941.85,273.96473680007364L976.7333333333333,277.5349291751053L1011.6166666666667,280.76203566855077L1046.5,283.5553822846192L1081.3833333333334,286.12552393267566L1116.2666666666667,288.5320506968366L1151.15,290.8190712237932L1186.0333333333333,293.02580433394587L1220.9166666666667,294.89071058685136L1255.8,295.8496940403468L1290.6833333333334,297.3975410221562L1325.5666666666666,299.1718902539323L1360.45,300.5095250208709L1395.3333333333333,301.85611479943896L1430.2166666666667,303.7776569780405L1465.1,305.10996882519055L1499.9833333333333,306.44234222265504L1534.8666666666666,307.50160769148454L1569.75,308.23495478260855L1604.6333333333334,308.8804590362299L1639.5166666666667,309.69601545902145L1674.4,311.1177590302009L1709.2833333333333,311.72957744493414L1744.1666666666667,312.7142006966011L1779.05,313.500739180004L1813.9333333333334,313.61849579895994L1848.8166666666666,314.0694690172182L1883.7,315.73989630626204L1918.5833333333333,316.32123770417417" style="fill: none;" fill="none"></path></g><g><path stroke="rgb(51, 187, 238)" stroke-width="2px" d="M209.3,-13.814398802243758L244.18333333333334,41.1859698180969L279.06666666666666,73.47118292012058L313.95,102.39979005527444L348.8333333333333,122.55024308599096L383.71666666666664,136.44791780197605L418.6,150.24888330958981L453.48333333333335,158.2543966478353L488.3666666666667,165.33067589100426L523.25,172.49752863128865L558.1333333333333,177.46303729051905L593.0166666666667,181.10270440846685L627.9,185.5741086703123L662.7833333333333,187.26153282569663L697.6666666666666,187.5165207748901L732.55,186.9594477338676L767.4333333333333,189.06540929828145L802.3166666666667,190.28004553115264L837.2,190.32528212283947L872.0833333333334,187.77899906991135L906.9666666666667,187.3981677937786L941.85,186.19356852843697L976.7333333333333,185.80562581874693L1011.6166666666667,188.25639577327044L1046.5,183.87080947302405L1081.3833333333334,181.34770957945906L1116.2666666666667,180.28387471225648L1151.15,179.05380387990155L1186.0333333333333,178.62002153302848L1220.9166666666667,178.77816900318732L1255.8,175.7455871416253L1290.6833333333334,179.12828855325628L1325.5666666666666,178.0687619161512L1360.45,178.57879754874318L1395.3333333333333,172.51853645647066L1430.2166666666667,169.65984349532715L1465.1,170.4579493728335L1499.9833333333333,165.47071288004628L1534.8666666666666,164.31951948683198L1569.75,161.8553436855469L1604.6333333333334,161.62356824205187L1639.5166666666667,160.09249591792056L1674.4,160.03705704005986L1709.2833333333333,159.89195896719357L1744.1666666666667,160.69625743541826L1779.05,160.59202299304383L1813.9333333333334,158.65317230916034L1848.8166666666666,159.68274355645295L1883.7,155.24687572312757L1918.5833333333333,151.5987038593278" style="fill: none;" fill="none"></path></g></g></g></g><g opacity="0.2"><g><g><g><path stroke="rgb(0, 119, 187)" stroke-width="2px" d="M209.3,-223.02832119281473L244.18333333333334,60.77073553892279L279.06666666666666,116.5406374564538L313.95,149.48689578129694L348.8333333333333,169.9680721576397L383.71666666666664,185.97199383148782L418.6,195.8170841107002L453.48333333333335,206.47561410757214L488.3666666666667,216.8524255018968L523.25,224.8387016057968L558.1333333333333,230.6704759872877L593.0166666666667,236.06219395307392L627.9,242.96008823468134L662.7833333333333,246.90258886263922L697.6666666666666,253.4314586382646L732.55,256.85630241724164L767.4333333333333,262.51386360938733L802.3166666666667,266.1405118428744L837.2,270.14544810698584L872.0833333333334,272.46762915757984L906.9666666666667,276.5770682050632L941.85,278.54648141219064L976.7333333333333,282.8901472504322L1011.6166666666667,285.60265718056604L1046.5,287.7453823548097L1081.3833333333334,289.9807254442802L1116.2666666666667,292.14183468543564L1151.15,294.2495985031128L1186.0333333333333,296.3359019664618L1220.9166666666667,297.6880689355043L1255.8,297.2881689025806L1290.6833333333334,299.7193111869005L1325.5666666666666,301.83341388977493L1360.45,302.51597707546676L1395.3333333333333,303.87599940941885L1430.2166666666667,306.65997019639383L1465.1,307.10843657530273L1499.9833333333333,308.4409023064834L1534.8666666666666,309.0905058888289L1569.75,309.33497541684375L1604.6333333333334,309.84871541536774L1639.5166666666667,310.9193500922276L1674.4,313.25037438594376L1709.2833333333333,312.647305066769L1744.1666666666667,314.19113557384566L1779.05,314.68054690498576L1813.9333333333334,313.7951307273828L1848.8166666666666,314.7459288445803L1883.7,318.24553723977164L1918.5833333333333,317.1932498010305" style="fill: none;" fill="none"></path></g><g><path stroke="rgb(51, 187, 238)" stroke-width="2px" d="M209.3,-13.814398802243758L244.18333333333334,74.18619099030124L279.06666666666666,104.46498749806334L313.95,136.41983204621536L348.8333333333333,148.8586745628944L383.71666666666664,155.67340509708112L418.6,169.98448480092563L453.48333333333335,169.9265119479253L488.3666666666667,175.76681327819824L523.25,183.13946969692526L558.1333333333333,184.8662634812869L593.0166666666667,186.54239817766046L627.9,192.266615152359L662.7833333333333,189.78936321918783L697.6666666666666,187.89870296991788L732.55,186.12423106340265L767.4333333333333,192.22346047254712L802.3166666666667,192.1016914844513L837.2,190.3931301190303L872.0833333333334,183.95980723087607L906.9666666666667,186.82694176527173L941.85,184.38670926827652L976.7333333333333,185.2237194134639L1011.6166666666667,191.93252167334927L1046.5,177.2924611935249L1081.3833333333334,177.56307049898004L1116.2666666666667,178.6881251335144L1151.15,177.20869951981766L1186.0333333333333,177.96934841229364L1220.9166666666667,179.01539012101983L1255.8,171.19671535491943L1290.6833333333334,184.20233999765836L1325.5666666666666,176.4794720869798L1360.45,179.3438509610983L1395.3333333333333,163.42814507851236L1430.2166666666667,165.37180412732639L1465.1,171.65510817674493L1499.9833333333333,157.98985818716199L1534.8666666666666,162.59272940342245L1569.75,158.15907999185418L1604.6333333333334,161.27590507727405L1639.5166666666667,157.7958874335656L1674.4,159.95389872330887L1709.2833333333333,159.6743118579571L1744.1666666666667,161.90270513754626L1779.05,160.4356713294983L1813.9333333333334,155.7448962835165L1848.8166666666666,161.22710042733414L1883.7,148.5930739732889L1918.5833333333333,146.12644606370193" style="fill: none;" fill="none"></path></g></g></g></g></g><g><g opacity="0.367637"><span fill="rgb(0, 0, 0)" stroke="none" stroke-width="1px">Alt + Scroll to Zoom</span></g></g></g><g transform="translate(60, 378)" clip-path="url(#clip_1)"><clipPath id="clip_1"><rect width="2093" height="22"></rect></clipPath><g><g><line x1="0" y1="0" x2="0" y2="5" style="visibility: inherit;" fill="rgb(0, 0, 0)" stroke="rgb(204, 204, 204)" stroke-width="1px"></line><line x1="174.41666666666666" y1="0" x2="174.41666666666666" y2="5" style="visibility: inherit;" fill="rgb(0, 0, 0)" stroke="rgb(204, 204, 204)" stroke-width="1px"></line><line x1="348.8333333333333" y1="0" x2="348.8333333333333" y2="5" style="visibility: inherit;" fill="rgb(0, 0, 0)" stroke="rgb(204, 204, 204)" stroke-width="1px"></line><line x1="523.25" y1="0" x2="523.25" y2="5" style="visibility: inherit;" fill="rgb(0, 0, 0)" stroke="rgb(204, 204, 204)" stroke-width="1px"></line><line x1="697.6666666666666" y1="0" x2="697.6666666666666" y2="5" style="visibility: inherit;" fill="rgb(0, 0, 0)" stroke="rgb(204, 204, 204)" stroke-width="1px"></line><line x1="872.0833333333334" y1="0" x2="872.0833333333334" y2="5" style="visibility: inherit;" fill="rgb(0, 0, 0)" stroke="rgb(204, 204, 204)" stroke-width="1px"></line><line x1="1046.5" y1="0" x2="1046.5" y2="5" style="visibility: inherit;" fill="rgb(0, 0, 0)" stroke="rgb(204, 204, 204)" stroke-width="1px"></line><line x1="1220.9166666666667" y1="0" x2="1220.9166666666667" y2="5" style="visibility: inherit;" fill="rgb(0, 0, 0)" stroke="rgb(204, 204, 204)" stroke-width="1px"></line><line x1="1395.3333333333333" y1="0" x2="1395.3333333333333" y2="5" style="visibility: inherit;" fill="rgb(0, 0, 0)" stroke="rgb(204, 204, 204)" stroke-width="1px"></line><line x1="1569.75" y1="0" x2="1569.75" y2="5" style="visibility: inherit;" fill="rgb(0, 0, 0)" stroke="rgb(204, 204, 204)" stroke-width="1px"></line><line x1="1744.1666666666667" y1="0" x2="1744.1666666666667" y2="5" style="visibility: inherit;" fill="rgb(0, 0, 0)" stroke="rgb(204, 204, 204)" stroke-width="1px"></line><line x1="1918.5833333333333" y1="0" x2="1918.5833333333333" y2="5" style="visibility: inherit;" fill="rgb(0, 0, 0)" stroke="rgb(204, 204, 204)" stroke-width="1px"></line><line x1="2093" y1="0" x2="2093" y2="5" style="visibility: inherit;" fill="rgb(0, 0, 0)" stroke="rgb(204, 204, 204)" stroke-width="1px"></line></g><g transform="translate(0, 8)"><text x="0" y="0" dx="0em" dy="0.95em" style="text-anchor: middle; visibility: hidden; font-family: Roboto, sans-serif; font-size: 12px; font-weight: 200;" fill="rgb(50, 49, 63)" stroke="none" stroke-width="1px">-5</text><text x="174.41666666666666" y="0" dx="0em" dy="0.95em" style="text-anchor: middle; visibility: inherit; font-family: Roboto, sans-serif; font-size: 12px; font-weight: 200;" fill="rgb(50, 49, 63)" stroke="none" stroke-width="1px">0</text><text x="348.8333333333333" y="0" dx="0em" dy="0.95em" style="text-anchor: middle; visibility: inherit; font-family: Roboto, sans-serif; font-size: 12px; font-weight: 200;" fill="rgb(50, 49, 63)" stroke="none" stroke-width="1px">5</text><text x="523.25" y="0" dx="0em" dy="0.95em" style="text-anchor: middle; visibility: inherit; font-family: Roboto, sans-serif; font-size: 12px; font-weight: 200;" fill="rgb(50, 49, 63)" stroke="none" stroke-width="1px">10</text><text x="697.6666666666666" y="0" dx="0em" dy="0.95em" style="text-anchor: middle; visibility: inherit; font-family: Roboto, sans-serif; font-size: 12px; font-weight: 200;" fill="rgb(50, 49, 63)" stroke="none" stroke-width="1px">15</text><text x="872.0833333333334" y="0" dx="0em" dy="0.95em" style="text-anchor: middle; visibility: inherit; font-family: Roboto, sans-serif; font-size: 12px; font-weight: 200;" fill="rgb(50, 49, 63)" stroke="none" stroke-width="1px">20</text><text x="1046.5" y="0" dx="0em" dy="0.95em" style="text-anchor: middle; visibility: inherit; font-family: Roboto, sans-serif; font-size: 12px; font-weight: 200;" fill="rgb(50, 49, 63)" stroke="none" stroke-width="1px">25</text><text x="1220.9166666666667" y="0" dx="0em" dy="0.95em" style="text-anchor: middle; visibility: inherit; font-family: Roboto, sans-serif; font-size: 12px; font-weight: 200;" fill="rgb(50, 49, 63)" stroke="none" stroke-width="1px">30</text><text x="1395.3333333333333" y="0" dx="0em" dy="0.95em" style="text-anchor: middle; visibility: inherit; font-family: Roboto, sans-serif; font-size: 12px; font-weight: 200;" fill="rgb(50, 49, 63)" stroke="none" stroke-width="1px">35</text><text x="1569.75" y="0" dx="0em" dy="0.95em" style="text-anchor: middle; visibility: inherit; font-family: Roboto, sans-serif; font-size: 12px; font-weight: 200;" fill="rgb(50, 49, 63)" stroke="none" stroke-width="1px">40</text><text x="1744.1666666666667" y="0" dx="0em" dy="0.95em" style="text-anchor: middle; visibility: inherit; font-family: Roboto, sans-serif; font-size: 12px; font-weight: 200;" fill="rgb(50, 49, 63)" stroke="none" stroke-width="1px">45</text><text x="1918.5833333333333" y="0" dx="0em" dy="0.95em" style="text-anchor: middle; visibility: inherit; font-family: Roboto, sans-serif; font-size: 12px; font-weight: 200;" fill="rgb(50, 49, 63)" stroke="none" stroke-width="1px">50</text><text x="2093" y="0" dx="0em" dy="0.95em" style="text-anchor: middle; visibility: hidden; font-family: Roboto, sans-serif; font-size: 12px; font-weight: 200;" fill="rgb(50, 49, 63)" stroke="none" stroke-width="1px">55</text></g><line x1="0" y1="0" x2="2093" y2="0" fill="rgb(0, 0, 0)" stroke="rgb(204, 204, 204)" stroke-width="1px"></line></g></g></g></g></svg>