<svg viewBox="0 0 2153 400" xmlns="http://www.w3.org/2000/svg"><g><g><g><g><g><line x1="60" y1="378" x2="55" y2="378" style="visibility: inherit;" fill="rgb(0, 0, 0)" stroke="rgb(204, 204, 204)" stroke-width="1px"></line><line x1="60" y1="346.5" x2="55" y2="346.5" style="visibility: inherit;" fill="rgb(0, 0, 0)" stroke="rgb(204, 204, 204)" stroke-width="1px"></line><line x1="60" y1="315" x2="55" y2="315" style="visibility: inherit;" fill="rgb(0, 0, 0)" stroke="rgb(204, 204, 204)" stroke-width="1px"></line><line x1="60" y1="283.5" x2="55" y2="283.5" style="visibility: inherit;" fill="rgb(0, 0, 0)" stroke="rgb(204, 204, 204)" stroke-width="1px"></line><line x1="60" y1="252.00000000000003" x2="55" y2="252.00000000000003" style="visibility: inherit;" fill="rgb(0, 0, 0)" stroke="rgb(204, 204, 204)" stroke-width="1px"></line><line x1="60" y1="220.5" x2="55" y2="220.5" style="visibility: inherit;" fill="rgb(0, 0, 0)" stroke="rgb(204, 204, 204)" stroke-width="1px"></line><line x1="60" y1="189.00000000000003" x2="55" y2="189.00000000000003" style="visibility: inherit;" fill="rgb(0, 0, 0)" stroke="rgb(204, 204, 204)" stroke-width="1px"></line><line x1="60" y1="157.50000000000003" x2="55" y2="157.50000000000003" style="visibility: inherit;" fill="rgb(0, 0, 0)" stroke="rgb(204, 204, 204)" stroke-width="1px"></line><line x1="60" y1="126.00000000000006" x2="55" y2="126.00000000000006" style="visibility: inherit;" fill="rgb(0, 0, 0)" stroke="rgb(204, 204, 204)" stroke-width="1px"></line><line x1="60" y1="94.50000000000004" x2="55" y2="94.50000000000004" style="visibility: inherit;" fill="rgb(0, 0, 0)" stroke="rgb(204, 204, 204)" stroke-width="1px"></line><line x1="60" y1="63.00000000000003" x2="55" y2="63.00000000000003" style="visibility: inherit;" fill="rgb(0, 0, 0)" stroke="rgb(204, 204, 204)" stroke-width="1px"></line><line x1="60" y1="31.500000000000014" x2="55" y2="31.500000000000014" style="visibility: inherit;" fill="rgb(0, 0, 0)" stroke="rgb(204, 204, 204)" stroke-width="1px"></line><line x1="60" y1="0" x2="55" y2="0" style="visibility: inherit;" fill="rgb(0, 0, 0)" stroke="rgb(204, 204, 204)" stroke-width="1px"></line></g><g transform="translate(50, 0)"><text x="0" y="378" dx="0em" dy="0.3em" style="text-anchor: end; visibility: hidden; font-family: Roboto, sans-serif; font-size: 12px; font-weight: 200;" fill="rgb(50, 49, 63)" stroke="none" stroke-width="1px">-0.05</text><text x="0" y="346.5" dx="0em" dy="0.3em" style="text-anchor: end; visibility: inherit; font-family: Roboto, sans-serif; font-size: 12px; font-weight: 200;" fill="rgb(50, 49, 63)" stroke="none" stroke-width="1px">0</text><text x="0" y="315" dx="0em" dy="0.3em" style="text-anchor: end; visibility: inherit; font-family: Roboto, sans-serif; font-size: 12px; font-weight: 200;" fill="rgb(50, 49, 63)" stroke="none" stroke-width="1px">0.05</text><text x="0" y="283.5" dx="0em" dy="0.3em" style="text-anchor: end; visibility: inherit; font-family: Roboto, sans-serif; font-size: 12px; font-weight: 200;" fill="rgb(50, 49, 63)" stroke="none" stroke-width="1px">0.1</text><text x="0" y="252.00000000000003" dx="0em" dy="0.3em" style="text-anchor: end; visibility: inherit; font-family: Roboto, sans-serif; font-size: 12px; font-weight: 200;" fill="rgb(50, 49, 63)" stroke="none" stroke-width="1px">0.15</text><text x="0" y="220.5" dx="0em" dy="0.3em" style="text-anchor: end; visibility: inherit; font-family: Roboto, sans-serif; font-size: 12px; font-weight: 200;" fill="rgb(50, 49, 63)" stroke="none" stroke-width="1px">0.2</text><text x="0" y="189.00000000000003" dx="0em" dy="0.3em" style="text-anchor: end; visibility: inherit; font-family: Roboto, sans-serif; font-size: 12px; font-weight: 200;" fill="rgb(50, 49, 63)" stroke="none" stroke-width="1px">0.25</text><text x="0" y="157.50000000000003" dx="0em" dy="0.3em" style="text-anchor: end; visibility: inherit; font-family: Roboto, sans-serif; font-size: 12px; font-weight: 200;" fill="rgb(50, 49, 63)" stroke="none" stroke-width="1px">0.3</text><text x="0" y="126.00000000000006" dx="0em" dy="0.3em" style="text-anchor: end; visibility: inherit; font-family: Roboto, sans-serif; font-size: 12px; font-weight: 200;" fill="rgb(50, 49, 63)" stroke="none" stroke-width="1px">0.35</text><text x="0" y="94.50000000000004" dx="0em" dy="0.3em" style="text-anchor: end; visibility: inherit; font-family: Roboto, sans-serif; font-size: 12px; font-weight: 200;" fill="rgb(50, 49, 63)" stroke="none" stroke-width="1px">0.4</text><text x="0" y="63.00000000000003" dx="0em" dy="0.3em" style="text-anchor: end; visibility: inherit; font-family: Roboto, sans-serif; font-size: 12px; font-weight: 200;" fill="rgb(50, 49, 63)" stroke="none" stroke-width="1px">0.45</text><text x="0" y="31.500000000000014" dx="0em" dy="0.3em" style="text-anchor: end; visibility: inherit; font-family: Roboto, sans-serif; font-size: 12px; font-weight: 200;" fill="rgb(50, 49, 63)" stroke="none" stroke-width="1px">0.5</text><text x="0" y="0" dx="0em" dy="0.3em" style="text-anchor: end; visibility: hidden; font-family: Roboto, sans-serif; font-size: 12px; font-weight: 200;" fill="rgb(50, 49, 63)" stroke="none" stroke-width="1px">0.55</text></g><line x1="60" y1="0" x2="60" y2="378" fill="rgb(0, 0, 0)" stroke="rgb(204, 204, 204)" stroke-width="1px"></line></g></g><g transform="translate(60, 0)" clip-path="url(#clip_0)"><clipPath id="clip_0"><rect width="2093" height="378"></rect></clipPath><g><g><g><line x1="0" y1="0" x2="0" y2="378" fill="rgb(0, 0, 0)" stroke="rgb(60, 60, 60)" stroke-width="1px" opacity="0.25"></line><line x1="174.41666666666666" y1="0" x2="174.41666666666666" y2="378" fill="rgb(0, 0, 0)" stroke="rgb(60, 60, 60)" stroke-width="1px" opacity="0.25"></line><line x1="348.8333333333333" y1="0" x2="348.8333333333333" y2="378" fill="rgb(0, 0, 0)" stroke="rgb(60, 60, 60)" stroke-width="1px" opacity="0.25"></line><line x1="523.25" y1="0" x2="523.25" y2="378" fill="rgb(0, 0, 0)" stroke="rgb(60, 60, 60)" stroke-width="1px" opacity="0.25"></line><line x1="697.6666666666666" y1="0" x2="697.6666666666666" y2="378" fill="rgb(0, 0, 0)" stroke="rgb(60, 60, 60)" stroke-width="1px" opacity="0.25"></line><line x1="872.0833333333334" y1="0" x2="872.0833333333334" y2="378" fill="rgb(0, 0, 0)" stroke="rgb(60, 60, 60)" stroke-width="1px" opacity="0.25"></line><line x1="1046.5" y1="0" x2="1046.5" y2="378" fill="rgb(0, 0, 0)" stroke="rgb(60, 60, 60)" stroke-width="1px" opacity="0.25"></line><line x1="1220.9166666666667" y1="0" x2="1220.9166666666667" y2="378" fill="rgb(0, 0, 0)" stroke="rgb(60, 60, 60)" stroke-width="1px" opacity="0.25"></line><line x1="1395.3333333333333" y1="0" x2="1395.3333333333333" y2="378" fill="rgb(0, 0, 0)" stroke="rgb(60, 60, 60)" stroke-width="1px" opacity="0.25"></line><line x1="1569.75" y1="0" x2="1569.75" y2="378" fill="rgb(0, 0, 0)" stroke="rgb(60, 60, 60)" stroke-width="1px" opacity="0.25"></line><line x1="1744.1666666666667" y1="0" x2="1744.1666666666667" y2="378" fill="rgb(0, 0, 0)" stroke="rgb(60, 60, 60)" stroke-width="1px" opacity="0.25"></line><line x1="1918.5833333333333" y1="0" x2="1918.5833333333333" y2="378" fill="rgb(0, 0, 0)" stroke="rgb(60, 60, 60)" stroke-width="1px" opacity="0.25"></line><line x1="2093" y1="0" x2="2093" y2="378" fill="rgb(0, 0, 0)" stroke="rgb(60, 60, 60)" stroke-width="1px" opacity="0.25"></line></g><g><line x1="0" y1="378" x2="2093" y2="378" fill="rgb(0, 0, 0)" stroke="rgb(60, 60, 60)" stroke-width="1px" opacity="0.25"></line><line x1="0" y1="346.5" x2="2093" y2="346.5" fill="rgb(0, 0, 0)" stroke="rgb(60, 60, 60)" stroke-width="1px" opacity="0.25"></line><line x1="0" y1="315" x2="2093" y2="315" fill="rgb(0, 0, 0)" stroke="rgb(60, 60, 60)" stroke-width="1px" opacity="0.25"></line><line x1="0" y1="283.5" x2="2093" y2="283.5" fill="rgb(0, 0, 0)" stroke="rgb(60, 60, 60)" stroke-width="1px" opacity="0.25"></line><line x1="0" y1="252.00000000000003" x2="2093" y2="252.00000000000003" fill="rgb(0, 0, 0)" stroke="rgb(60, 60, 60)" stroke-width="1px" opacity="0.25"></line><line x1="0" y1="220.5" x2="2093" y2="220.5" fill="rgb(0, 0, 0)" stroke="rgb(60, 60, 60)" stroke-width="1px" opacity="0.25"></line><line x1="0" y1="189.00000000000003" x2="2093" y2="189.00000000000003" fill="rgb(0, 0, 0)" stroke="rgb(60, 60, 60)" stroke-width="1px" opacity="0.25"></line><line x1="0" y1="157.50000000000003" x2="2093" y2="157.50000000000003" fill="rgb(0, 0, 0)" stroke="rgb(60, 60, 60)" stroke-width="1px" opacity="0.25"></line><line x1="0" y1="126.00000000000006" x2="2093" y2="126.00000000000006" fill="rgb(0, 0, 0)" stroke="rgb(60, 60, 60)" stroke-width="1px" opacity="0.25"></line><line x1="0" y1="94.50000000000004" x2="2093" y2="94.50000000000004" fill="rgb(0, 0, 0)" stroke="rgb(60, 60, 60)" stroke-width="1px" opacity="0.25"></line><line x1="0" y1="63.00000000000003" x2="2093" y2="63.00000000000003" fill="rgb(0, 0, 0)" stroke="rgb(60, 60, 60)" stroke-width="1px" opacity="0.25"></line><line x1="0" y1="31.500000000000014" x2="2093" y2="31.500000000000014" fill="rgb(0, 0, 0)" stroke="rgb(60, 60, 60)" stroke-width="1px" opacity="0.25"></line><line x1="0" y1="0" x2="2093" y2="0" fill="rgb(0, 0, 0)" stroke="rgb(60, 60, 60)" stroke-width="1px" opacity="0.25"></line></g></g></g><g><g><line x1="0" y1="346.5" x2="2093" y2="346.5" fill="rgb(0, 0, 0)" stroke="rgb(153, 153, 153)" stroke-width="1.5px"></line></g></g><g><g><line x1="174.41666666666666" y1="0" x2="174.41666666666666" y2="378" fill="rgb(0, 0, 0)" stroke="rgb(153, 153, 153)" stroke-width="1.5px"></line></g></g><g><g><g><g><g><path stroke="rgb(0, 119, 187)" stroke-width="2px" d="M244.18333333333334,-84.40921372175214L279.06666666666666,9.250383062022083L313.95,65.0914828967961L348.8333333333333,103.32487571326338L383.71666666666664,130.6267594440203L418.6,152.2616321950183L453.48333333333335,168.95729865917323L488.3666666666667,182.64182302515266L523.25,193.5733678914291L558.1333333333333,203.2240296469738L593.0166666666667,211.51078139063145L627.9,219.4812118867757L662.7833333333333,225.78469666380903L697.6666666666666,232.18501061551527L732.55,238.29128228695382L767.4333333333333,243.99883153034824L802.3166666666667,248.71518909749736L837.2,252.90803271989247L872.0833333333334,256.92496135452205L906.9666666666667,260.63364291242357L941.85,263.47363669547923L976.7333333333333,267.22151646385936L1011.6166666666667,270.9172252615829L1046.5,274.0220190580684L1081.3833333333334,276.8571129878264L1116.2666666666667,279.20303084387814L1151.15,281.5728568917076L1186.0333333333333,284.3893728492466L1220.9166666666667,286.42674806680935L1255.8,288.15147294013934L1290.6833333333334,289.7273715463358L1325.5666666666666,291.0197647966428L1360.45,292.80275592294595L1395.3333333333333,293.7519782949981L1430.2166666666667,295.4598549047136L1465.1,296.98065112810883L1499.9833333333333,298.33926765696964L1534.8666666666666,299.6561235789596L1569.75,301.12399943095795L1604.6333333333334,301.7804858297747L1639.5166666666667,302.2914858648042L1674.4,303.7645152864454L1709.2833333333333,304.361158475836L1744.1666666666667,305.8259466742369L1779.05,306.52012442383875L1813.9333333333334,307.1043851425492L1848.8166666666666,308.1961546123418L1883.7,308.70649971845796L1918.5833333333333,309.469736288691" style="fill: none;" fill="none"></path></g><g><path stroke="rgb(51, 187, 238)" stroke-width="2px" d="M209.3,-31.845070481300354L244.18333333333334,19.77610563486816L279.06666666666666,56.31251861367907L313.95,82.58104269622886L348.8333333333333,104.07188290729864L383.71666666666664,119.8094789337059L418.6,131.45565637458313L453.48333333333335,142.19532803567856L488.3666666666667,152.20366126052645L523.25,157.52097758696223L558.1333333333333,162.7390394184763L593.0166666666667,165.8370663042073L627.9,164.72520384509684L662.7833333333333,162.78878475431563L697.6666666666666,163.75303986940798L732.55,167.60732855906997L767.4333333333333,169.7334774813674L802.3166666666667,169.44505945730654L837.2,168.20115992460106L872.0833333333334,169.60592449833038L906.9666666666667,167.82521988991957L941.85,165.47522218627694L976.7333333333333,164.05052328081004L1011.6166666666667,162.93065291469955L1046.5,162.31259729280964L1081.3833333333334,155.61683395840785L1116.2666666666667,158.5656579833629L1151.15,159.79615442627374L1186.0333333333333,155.65417392629345L1220.9166666666667,155.67105794074655L1255.8,152.26282193824966L1290.6833333333334,150.07026041322544L1325.5666666666666,149.20381017823263L1360.45,148.15762626689897L1395.3333333333333,148.21886279427315L1430.2166666666667,146.31066948736446L1465.1,142.31872488510587L1499.9833333333333,142.15782323689308L1534.8666666666666,138.85728701339582L1569.75,139.5898995432301L1604.6333333333334,140.3163110758554L1639.5166666666667,143.23729331310238L1674.4,138.71882540462474L1709.2833333333333,143.7341331161489L1744.1666666666667,139.57342650354946L1779.05,140.8496539704466L1813.9333333333334,135.7936450546557L1848.8166666666666,138.50085534492698L1883.7,131.76320608749592L1918.5833333333333,133.57861359296479" style="fill: none;" fill="none"></path></g></g></g></g><g opacity="0.2"><g><g><g><path stroke="rgb(0, 119, 187)" stroke-width="2px" d="M209.3,-280.8554760217666L244.18333333333334,33.45854365825656L279.06666666666666,99.1635959744454L313.95,130.7606163024903L348.8333333333333,153.2423933744431L383.71666666666664,168.3950933218003L418.6,183.1998463869095L453.48333333333335,193.29974064230922L488.3666666666667,202.82383838295942L523.25,209.80543801188475L558.1333333333333,217.61249148845675L593.0166666666667,223.895812869072L627.9,231.41083279252058L662.7833333333333,235.22757464647293L697.6666666666666,241.77795821428305L732.55,247.44638317823413L767.4333333333333,252.55774015188217L802.3166666666667,255.7885279655457L837.2,259.1966594159603L872.0833333333334,262.9499871432781L906.9666666666667,266.1964618563652L941.85,267.7335339188576L976.7333333333333,272.84326212108135L1011.6166666666667,276.46074467897415L1046.5,278.67918768525124L1081.3833333333334,281.1097417920828L1116.2666666666667,282.7219016253948L1151.15,285.12759232521057L1186.0333333333333,288.6141441911459L1220.9166666666667,289.48280976712704L1255.8,290.7385596781969L1290.6833333333334,292.09121914207935L1325.5666666666666,292.9583545178175L1360.45,295.47724248468876L1395.3333333333333,295.1758118122816L1430.2166666666667,298.0216697752476L1465.1,299.26184543967247L1499.9833333333333,300.3771924376488L1534.8666666666666,301.63140745460987L1569.75,303.32581320405006L1604.6333333333334,302.7652154266834L1639.5166666666667,303.05798591673374L1674.4,305.9740594178438L1709.2833333333333,305.2561232596636L1744.1666666666667,308.0231289714575L1779.05,307.5613910481334L1813.9333333333334,307.9807762205601L1848.8166666666666,309.8338088169694L1883.7,309.472017377615L1918.5833333333333,310.6145911440253" style="fill: none;" fill="none"></path></g><g><path stroke="rgb(51, 187, 238)" stroke-width="2px" d="M209.3,-31.845070481300354L244.18333333333334,50.74881130456926L279.06666666666666,91.38747507333763L313.95,113.47282701730731L348.8333333333333,132.13032388687137L383.71666666666664,141.5802397727967L418.6,148.10987645387655L453.48333333333335,157.85387241840365L488.3666666666667,166.9640087485314L523.25,165.41657263040545L558.1333333333333,170.51880472898486L593.0166666666667,170.4672473073006L627.9,163.06104058027273L662.7833333333333,159.8879497647286L697.6666666666666,165.1982890963555L732.55,173.3860432505608L767.4333333333333,172.92180114984515L802.3166666666667,169.01250565052035L837.2,166.33550012111667L872.0833333333334,171.71294295787817L906.9666666666667,165.154260635376L941.85,161.9503029584885L976.7333333333333,161.9135030508042L1011.6166666666667,161.25086063146594L1046.5,161.3855182528496L1081.3833333333334,145.57321751117712L1116.2666666666667,162.9888864755631L1151.15,161.64189720153814L1186.0333333333333,149.44120699167257L1220.9166666666667,155.6963839530945L1255.8,147.15046906471258L1290.6833333333334,146.78141856193548L1325.5666666666666,147.90413492918017L1360.45,146.58835047483447L1395.3333333333333,148.31071758270267L1430.2166666666667,143.44837957620624L1465.1,136.33080804347995L1499.9833333333333,141.91647076606753L1534.8666666666666,133.90648269653323L1569.75,140.6888183355332L1604.6333333333334,141.40592837333682L1639.5166666666667,147.61876666545874L1674.4,131.94112354516986L1709.2833333333333,151.257094681263L1744.1666666666667,133.33236658573156L1779.05,142.76399517059332L1813.9333333333334,128.2096316814423L1848.8166666666666,142.56167078018194L1883.7,121.65673220157628L1918.5833333333333,136.3017248511315" style="fill: none;" fill="none"></path></g></g></g></g></g></g><g transform="translate(60, 378)" clip-path="url(#clip_1)"><clipPath id="clip_1"><rect width="2093" height="22"></rect></clipPath><g><g><line x1="0" y1="0" x2="0" y2="5" style="visibility: inherit;" fill="rgb(0, 0, 0)" stroke="rgb(204, 204, 204)" stroke-width="1px"></line><line x1="174.41666666666666" y1="0" x2="174.41666666666666" y2="5" style="visibility: inherit;" fill="rgb(0, 0, 0)" stroke="rgb(204, 204, 204)" stroke-width="1px"></line><line x1="348.8333333333333" y1="0" x2="348.8333333333333" y2="5" style="visibility: inherit;" fill="rgb(0, 0, 0)" stroke="rgb(204, 204, 204)" stroke-width="1px"></line><line x1="523.25" y1="0" x2="523.25" y2="5" style="visibility: inherit;" fill="rgb(0, 0, 0)" stroke="rgb(204, 204, 204)" stroke-width="1px"></line><line x1="697.6666666666666" y1="0" x2="697.6666666666666" y2="5" style="visibility: inherit;" fill="rgb(0, 0, 0)" stroke="rgb(204, 204, 204)" stroke-width="1px"></line><line x1="872.0833333333334" y1="0" x2="872.0833333333334" y2="5" style="visibility: inherit;" fill="rgb(0, 0, 0)" stroke="rgb(204, 204, 204)" stroke-width="1px"></line><line x1="1046.5" y1="0" x2="1046.5" y2="5" style="visibility: inherit;" fill="rgb(0, 0, 0)" stroke="rgb(204, 204, 204)" stroke-width="1px"></line><line x1="1220.9166666666667" y1="0" x2="1220.9166666666667" y2="5" style="visibility: inherit;" fill="rgb(0, 0, 0)" stroke="rgb(204, 204, 204)" stroke-width="1px"></line><line x1="1395.3333333333333" y1="0" x2="1395.3333333333333" y2="5" style="visibility: inherit;" fill="rgb(0, 0, 0)" stroke="rgb(204, 204, 204)" stroke-width="1px"></line><line x1="1569.75" y1="0" x2="1569.75" y2="5" style="visibility: inherit;" fill="rgb(0, 0, 0)" stroke="rgb(204, 204, 204)" stroke-width="1px"></line><line x1="1744.1666666666667" y1="0" x2="1744.1666666666667" y2="5" style="visibility: inherit;" fill="rgb(0, 0, 0)" stroke="rgb(204, 204, 204)" stroke-width="1px"></line><line x1="1918.5833333333333" y1="0" x2="1918.5833333333333" y2="5" style="visibility: inherit;" fill="rgb(0, 0, 0)" stroke="rgb(204, 204, 204)" stroke-width="1px"></line><line x1="2093" y1="0" x2="2093" y2="5" style="visibility: inherit;" fill="rgb(0, 0, 0)" stroke="rgb(204, 204, 204)" stroke-width="1px"></line></g><g transform="translate(0, 8)"><text x="0" y="0" dx="0em" dy="0.95em" style="text-anchor: middle; visibility: hidden; font-family: Roboto, sans-serif; font-size: 12px; font-weight: 200;" fill="rgb(50, 49, 63)" stroke="none" stroke-width="1px">-5</text><text x="174.41666666666666" y="0" dx="0em" dy="0.95em" style="text-anchor: middle; visibility: inherit; font-family: Roboto, sans-serif; font-size: 12px; font-weight: 200;" fill="rgb(50, 49, 63)" stroke="none" stroke-width="1px">0</text><text x="348.8333333333333" y="0" dx="0em" dy="0.95em" style="text-anchor: middle; visibility: inherit; font-family: Roboto, sans-serif; font-size: 12px; font-weight: 200;" fill="rgb(50, 49, 63)" stroke="none" stroke-width="1px">5</text><text x="523.25" y="0" dx="0em" dy="0.95em" style="text-anchor: middle; visibility: inherit; font-family: Roboto, sans-serif; font-size: 12px; font-weight: 200;" fill="rgb(50, 49, 63)" stroke="none" stroke-width="1px">10</text><text x="697.6666666666666" y="0" dx="0em" dy="0.95em" style="text-anchor: middle; visibility: inherit; font-family: Roboto, sans-serif; font-size: 12px; font-weight: 200;" fill="rgb(50, 49, 63)" stroke="none" stroke-width="1px">15</text><text x="872.0833333333334" y="0" dx="0em" dy="0.95em" style="text-anchor: middle; visibility: inherit; font-family: Roboto, sans-serif; font-size: 12px; font-weight: 200;" fill="rgb(50, 49, 63)" stroke="none" stroke-width="1px">20</text><text x="1046.5" y="0" dx="0em" dy="0.95em" style="text-anchor: middle; visibility: inherit; font-family: Roboto, sans-serif; font-size: 12px; font-weight: 200;" fill="rgb(50, 49, 63)" stroke="none" stroke-width="1px">25</text><text x="1220.9166666666667" y="0" dx="0em" dy="0.95em" style="text-anchor: middle; visibility: inherit; font-family: Roboto, sans-serif; font-size: 12px; font-weight: 200;" fill="rgb(50, 49, 63)" stroke="none" stroke-width="1px">30</text><text x="1395.3333333333333" y="0" dx="0em" dy="0.95em" style="text-anchor: middle; visibility: inherit; font-family: Roboto, sans-serif; font-size: 12px; font-weight: 200;" fill="rgb(50, 49, 63)" stroke="none" stroke-width="1px">35</text><text x="1569.75" y="0" dx="0em" dy="0.95em" style="text-anchor: middle; visibility: inherit; font-family: Roboto, sans-serif; font-size: 12px; font-weight: 200;" fill="rgb(50, 49, 63)" stroke="none" stroke-width="1px">40</text><text x="1744.1666666666667" y="0" dx="0em" dy="0.95em" style="text-anchor: middle; visibility: inherit; font-family: Roboto, sans-serif; font-size: 12px; font-weight: 200;" fill="rgb(50, 49, 63)" stroke="none" stroke-width="1px">45</text><text x="1918.5833333333333" y="0" dx="0em" dy="0.95em" style="text-anchor: middle; visibility: inherit; font-family: Roboto, sans-serif; font-size: 12px; font-weight: 200;" fill="rgb(50, 49, 63)" stroke="none" stroke-width="1px">50</text><text x="2093" y="0" dx="0em" dy="0.95em" style="text-anchor: middle; visibility: hidden; font-family: Roboto, sans-serif; font-size: 12px; font-weight: 200;" fill="rgb(50, 49, 63)" stroke="none" stroke-width="1px">55</text></g><line x1="0" y1="0" x2="2093" y2="0" fill="rgb(0, 0, 0)" stroke="rgb(204, 204, 204)" stroke-width="1px"></line></g></g></g></g></svg>